<svg width="16" height="32" viewBox="0 0 16 32" fill="none" xmlns="http://www.w3.org/2000/svg">
<g clip-path="url(#clip0)">
<path d="M15.4764 23.028C15.614 23.028 15.7484 23.087 15.8457 23.1901C15.9435 23.2933 15.9995 23.4345 15.9995 23.5801C15.999 23.7257 15.9435 23.8669 15.8457 23.9701C15.7484 24.0727 15.614 24.1322 15.4764 24.1322C15.3383 24.1317 15.2039 24.0732 15.106 23.9701C15.0087 23.8675 14.9528 23.7252 14.9528 23.5801C14.9533 23.4345 15.0087 23.2927 15.106 23.1901C15.2033 23.0875 15.3383 23.0285 15.4764 23.028Z" fill="black"/>
<path d="M5.60361 4.22125C5.49114 3.95649 5.39436 3.72814 5.35042 3.52185C5.30125 3.29018 5.27719 3.07672 5.27719 2.86988C5.27719 1.28739 6.49866 0 8 0C9.50134 0 10.7223 1.28739 10.7223 2.86988C10.7223 3.07672 10.6982 3.28963 10.6491 3.52185C10.6051 3.72759 10.5083 3.95649 10.3959 4.2207C10.2876 4.47498 10.0381 5.06241 10.0804 5.25161C10.093 5.25823 10.1181 5.26926 10.1626 5.27919C11.0283 5.47224 12.7284 6.11759 13.4524 7.24557H14.0467C14.5682 7.24557 15.0584 7.45959 15.4272 7.84845C15.796 8.23732 15.9995 8.7547 15.9995 9.30463C15.9995 9.85455 15.7965 10.3714 15.4277 10.7603C15.2399 10.9583 15.0197 11.1111 14.7806 11.2131C15.5276 11.9097 15.9995 12.9269 16 14.0582V21.7759C16 22.0804 15.7656 22.3275 15.4769 22.3275C15.1881 22.3275 14.9538 22.0804 14.9538 21.7759V17.3969H12.3215C12.1771 17.3969 12.0463 17.3351 11.9516 17.2353C11.8569 17.1354 11.7983 16.9975 11.7983 16.8453C11.7983 16.5408 12.0327 16.2937 12.3215 16.2937H14.9532V14.0582C14.9532 13.3383 14.6875 12.6616 14.2047 12.153C13.7218 11.6439 13.0805 11.3637 12.3978 11.3637H3.60165C2.91898 11.3637 2.27712 11.6439 1.79481 12.153C1.3125 12.6621 1.04623 13.3383 1.04623 14.0582V29.1296C1.04623 30.1037 1.79795 30.8968 2.72229 30.8968H13.2777C14.2015 30.8968 14.9538 30.1042 14.9538 29.1296V25.5399C14.9538 25.2354 15.1881 24.9883 15.4769 24.9883C15.7656 24.9883 16 25.2354 16 25.5399V29.1296C16 30.7121 14.779 32 13.2777 32H2.72229C1.97162 32 1.29105 31.6779 0.798273 31.1583C0.305498 30.6387 0 29.9211 0 29.1296V14.0582C0 12.9269 0.472372 11.9103 1.21886 11.2137C0.979795 11.1116 0.759562 10.9588 0.571765 10.7608C0.202969 10.3719 0 9.85511 0 9.30518C0 8.17002 0.875693 7.24668 1.95226 7.24668H2.54652C3.27052 6.11869 4.97064 5.47334 5.8364 5.28029C5.88086 5.27036 5.90597 5.25933 5.91852 5.25271C5.96142 5.06297 5.71189 4.47553 5.60361 4.22125ZM2.84888 8.34929H2.84836H1.95279C1.45321 8.34929 1.04675 8.77787 1.04675 9.30463C1.04675 9.56001 1.14091 9.79995 1.31197 9.98032C1.48303 10.1607 1.71059 10.26 1.95279 10.26H14.0472C14.2894 10.26 14.517 10.1607 14.688 9.98032C14.8591 9.79995 14.9532 9.56001 14.9532 9.30463C14.9532 9.04097 14.8518 8.80214 14.6875 8.62949C14.5232 8.4563 14.2967 8.34929 14.0472 8.34929H13.1511C13.1511 8.34929 13.1511 8.34929 13.1506 8.34929H2.84888ZM6.05297 6.35918C5.36873 6.51142 4.59452 6.84016 4.03374 7.24613H11.9663C11.4055 6.84071 10.6313 6.51142 9.94703 6.35918C9.47623 6.25438 9.25443 5.97749 9.15138 5.76403C8.85529 5.15067 9.18015 4.38507 9.4417 3.77006C9.51965 3.58638 9.60806 3.37844 9.62898 3.28136C9.66141 3.12912 9.67658 2.99454 9.67658 2.86988C9.67658 1.89579 8.92487 1.10316 8.00052 1.10316C7.07618 1.10316 6.32446 1.89579 6.32446 2.86988C6.32446 2.99454 6.34016 3.12912 6.37259 3.28081C6.39351 3.37844 6.48192 3.58638 6.55986 3.77006C6.8209 4.38507 7.14575 5.15012 6.85019 5.76347C6.74557 5.97749 6.52377 6.25438 6.05297 6.35918Z" fill="black" stroke="black" stroke-width="0.1"/>
<path d="M2.84886 15.0135H5.93367C6.22243 15.0135 6.45679 15.2607 6.45679 15.5651C6.45679 15.8696 6.22243 16.1167 5.93367 16.1167H2.84886C2.70448 16.1167 2.5737 16.0549 2.47902 15.9551C2.38434 15.8553 2.32575 15.7174 2.32575 15.5651C2.32575 15.2607 2.5601 15.0135 2.84886 15.0135Z" fill="black"/>
<path d="M2.84886 18.7234H5.93367C6.22243 18.7234 6.45679 18.9706 6.45679 19.275C6.45679 19.5795 6.22243 19.8266 5.93367 19.8266H2.84886C2.70448 19.8266 2.5737 19.7648 2.47902 19.665C2.38434 19.5652 2.32575 19.4273 2.32575 19.275C2.32575 18.9706 2.5601 18.7234 2.84886 18.7234Z" fill="black"/>
<path d="M2.84886 22.4333H5.93367C6.22243 22.4333 6.45679 22.6805 6.45679 22.9849C6.45679 23.2894 6.22243 23.5365 5.93367 23.5365H2.84886C2.70448 23.5365 2.5737 23.4747 2.47902 23.3749C2.38434 23.275 2.32575 23.1372 2.32575 22.9849C2.32575 22.6805 2.5601 22.4333 2.84886 22.4333Z" fill="black"/>
<path d="M2.84886 26.1433H5.93367C6.22243 26.1433 6.45679 26.3904 6.45679 26.6949C6.45679 26.9994 6.22243 27.2465 5.93367 27.2465H2.84886C2.70448 27.2465 2.5737 27.1847 2.47902 27.0849C2.38434 26.985 2.32575 26.8471 2.32575 26.6949C2.32575 26.3904 2.5601 26.1433 2.84886 26.1433Z" fill="black"/>
<path d="M9.83717 16.2932C9.97475 16.2932 10.1092 16.3522 10.2065 16.4553C10.3038 16.5579 10.3603 16.6997 10.3603 16.8447C10.3608 16.9904 10.3043 17.1321 10.2065 17.2353C10.1092 17.3379 9.97475 17.3974 9.83665 17.3969C9.69907 17.3969 9.56411 17.3379 9.46681 17.2353C9.36951 17.1327 9.31353 16.9904 9.31353 16.8453C9.31353 16.7002 9.36951 16.5579 9.46681 16.4553C9.56463 16.3522 9.69907 16.2937 9.83717 16.2932Z" fill="black"/>
</g>
<defs>
<clipPath id="clip0">
<rect width="16" height="32" fill="white" transform="matrix(-1 0 0 1 16 0)"/>
</clipPath>
</defs>
</svg>
