<svg width="17" height="10" viewBox="0 0 17 10" fill="none" xmlns="http://www.w3.org/2000/svg">
<path d="M16.6742 1.97652C16.885 1.76125 17 1.48728 17 1.16438C17 0.518592 16.5017 7.21312e-07 15.8692 6.93666e-07C15.553 6.79843e-07 15.2655 0.136987 15.0451 0.362036L8.49042 7.21135L1.9549 0.362036C1.7345 0.136987 1.43743 6.2832e-08 1.13078 4.94279e-08C0.498309 2.17818e-08 4.14446e-07 0.518591 3.86217e-07 1.16438C3.72103e-07 1.48728 0.114995 1.76125 0.325818 1.97652L7.60879 9.58904C7.85795 9.86301 8.1646 9.99022 8.5 10C8.8354 10 9.12289 9.86301 9.38162 9.58904L16.6742 1.97652Z" fill="#BBBBBB"/>
</svg>
