<svg width="32" height="32" viewBox="0 0 32 32" fill="none" xmlns="http://www.w3.org/2000/svg">
<g clip-path="url(#clip0)">
<path d="M16 31.9519C24.8366 31.9519 32 24.7993 32 15.976C32 7.15269 24.8366 0 16 0C7.16344 0 0 7.15269 0 15.976C0 24.7993 7.16344 31.9519 16 31.9519Z" fill="#FFD54F"/>
<path d="M28.7402 1.28369C27.9684 1.28369 27.2402 1.5433 26.6671 1.99075C26.094 1.5433 25.3659 1.28369 24.594 1.28369C22.7965 1.28369 21.334 2.67909 21.334 4.39339C21.334 7.06562 25.3009 9.96501 26.094 10.5186C26.2671 10.6384 26.4671 10.6983 26.6671 10.6983C26.8671 10.6983 27.0671 10.6384 27.2402 10.5186C28.0334 9.96314 32.0002 7.065 32.0002 4.39339C32.0002 2.67847 30.5377 1.28369 28.7402 1.28369Z" fill="#E53935"/>
<path d="M7.40688 22.5847C6.635 22.5847 5.90687 22.8443 5.33375 23.2918C4.76062 22.8443 4.0325 22.5847 3.26062 22.5847C1.4625 22.5847 0 23.9801 0 25.6944C0 28.3667 3.96688 31.2661 4.76 31.8196C4.93313 31.9394 5.13313 31.9993 5.33313 31.9993C5.53312 31.9993 5.73313 31.9394 5.90625 31.8196C6.69938 31.2642 10.6663 28.366 10.6663 25.6944C10.6669 23.9801 9.20375 22.5847 7.40688 22.5847Z" fill="#E53935"/>
<path d="M12.3332 14.9775C11.7814 14.9775 11.3332 14.53 11.3332 13.979C11.3332 13.2457 10.7357 12.6479 10.0001 12.6479C9.26449 12.6479 8.66699 13.2457 8.66699 13.979C8.66699 14.53 8.21887 14.9775 7.66699 14.9775C7.11512 14.9775 6.66699 14.53 6.66699 13.979C6.66699 12.1443 8.16137 10.6509 10.0001 10.6509C11.8389 10.6509 13.3332 12.1449 13.3332 13.979C13.3332 14.53 12.8857 14.9775 12.3332 14.9775Z" fill="#6D4C41"/>
<path d="M24.3332 14.9775C23.7814 14.9775 23.3332 14.53 23.3332 13.979C23.3332 13.2457 22.7357 12.6479 22.0001 12.6479C21.2645 12.6479 20.667 13.2457 20.667 13.979C20.667 14.53 20.2189 14.9775 19.667 14.9775C19.1151 14.9775 18.667 14.53 18.667 13.979C18.667 12.1443 20.1614 10.6509 22.0001 10.6509C23.8389 10.6509 25.3332 12.1449 25.3332 13.979C25.3332 14.53 24.8857 14.9775 24.3332 14.9775Z" fill="#6D4C41"/>
<path d="M15.9998 23.9639C13.088 23.9639 10.3517 22.8325 8.29297 20.7756C7.90234 20.3855 7.90234 19.7534 8.29297 19.3633C8.68359 18.9733 9.31672 18.9733 9.70734 19.3633C11.388 21.0427 13.6223 21.9669 15.9998 21.9669C18.3773 21.9669 20.6117 21.0427 22.293 19.364C22.6836 18.9739 23.3167 18.9739 23.7073 19.364C24.098 19.754 24.098 20.3862 23.7073 20.7762C21.648 22.8325 18.9117 23.9639 15.9998 23.9639Z" fill="#6D4C41"/>
</g>
<defs>
<clipPath id="clip0">
<rect width="32" height="32" fill="white"/>
</clipPath>
</defs>
</svg>
