<svg width="28" height="32" viewBox="0 0 28 32" fill="none" xmlns="http://www.w3.org/2000/svg">
<path d="M13.6097 10.1538C13.4396 10.0067 13.2651 9.86839 13.0863 9.73458C13.0863 9.73012 13.0863 9.72566 13.0863 9.7212C13.0863 7.59811 12.336 5.54639 10.9707 3.94515C10.8224 3.7712 10.8312 3.50358 10.9926 3.33855L12.2313 2.04507C12.3317 1.93803 12.4713 1.89342 12.6152 1.91126C12.7591 1.93357 12.8769 2.01831 12.9423 2.14766C14.0721 4.38672 14.674 6.79972 14.7307 9.3287C14.3382 9.56955 13.9674 9.84609 13.6097 10.1538ZM17.4308 2.88806C18.7524 1.5366 20.6629 0.952305 22.4862 1.32697C22.8526 3.19136 22.2812 5.14496 20.9596 6.49643C19.8167 7.66502 18.2334 8.25823 16.65 8.15565L18.6128 6.14852C18.844 5.91213 18.844 5.52409 18.6128 5.28769C18.3817 5.0513 18.0022 5.0513 17.771 5.28769L15.8081 7.29481C15.7078 5.67573 16.2879 4.06112 17.4308 2.88806ZM26.1197 12.946C24.9769 10.591 23.1056 8.95404 20.8505 8.33406C20.7894 8.31622 20.7284 8.30284 20.6717 8.28946C21.0773 8.0263 21.4568 7.71408 21.8058 7.35726C23.5113 5.61329 24.183 3.04863 23.5593 0.666847C23.5069 0.457214 23.3455 0.292184 23.1362 0.234201C20.8025 -0.403618 18.2944 0.283264 16.5933 2.02723C15.9433 2.69181 15.4461 3.47236 15.1102 4.31981C14.818 3.38315 14.4472 2.47326 14.0023 1.58566C13.758 1.10395 13.3218 0.782814 12.7984 0.702529C12.2793 0.622245 11.7515 0.805116 11.3895 1.18424L10.1507 2.47772C9.55749 3.0977 9.53131 4.08788 10.0853 4.73908C11.0972 5.92551 11.7166 7.40186 11.8693 8.9585C11.4157 8.7221 10.9446 8.53031 10.4648 8.38758C9.12129 7.98616 7.70803 7.96386 6.37764 8.3296C5.39185 8.60168 4.46712 9.07 3.64272 9.72566C3.381 9.93084 3.33302 10.3144 3.53803 10.5776C3.73868 10.8452 4.11381 10.8943 4.37116 10.6846C5.07343 10.1315 5.84985 9.73012 6.68734 9.50265C8.94682 8.88267 11.3241 9.57401 13.2128 11.4027C13.444 11.6257 13.8016 11.6257 14.0328 11.4027C15.9215 9.57847 18.2988 8.88267 20.5583 9.50265C24.5625 10.5999 26.9005 15.4928 25.7751 20.408C25.0031 23.78 22.5647 27.2991 19.8429 28.9628C18.4253 29.8326 17.0382 30.1136 15.8343 29.7835C15.5202 29.6988 15.2105 29.565 14.9139 29.3955C14.1201 28.9361 13.1299 28.9361 12.336 29.3955C12.0394 29.565 11.7297 29.6943 11.4157 29.7835C10.2118 30.1136 8.82468 29.8281 7.40706 28.9628C4.68958 27.2991 2.25127 23.78 1.47484 20.408C1.04737 18.5436 1.10408 16.6346 1.63623 14.8773C1.7322 14.5561 1.55772 14.2172 1.24366 14.1146C0.929603 14.0164 0.598097 14.1949 0.497772 14.516C-0.0954491 16.4785 -0.160878 18.6105 0.314572 20.6846C1.15642 24.3554 3.8172 28.1867 6.79203 30.0065C8.01337 30.7559 9.23907 31.135 10.395 31.135C10.8486 31.135 11.2892 31.077 11.721 30.9566C12.131 30.8451 12.5323 30.6756 12.9162 30.457C13.3524 30.2072 13.8932 30.2072 14.3294 30.457C14.7133 30.6756 15.1146 30.8451 15.5246 30.9566C17.0469 31.3758 18.7524 31.0458 20.4536 30.0021C23.4284 28.1823 26.0892 24.3509 26.931 20.6801C27.5286 18.0218 27.2451 15.2698 26.1197 12.946Z" fill="#88CAB9"/>
<path d="M2.59322 12.2132C2.75025 12.2132 2.90292 12.1508 3.01197 12.0348C3.12101 11.9233 3.18644 11.7672 3.18644 11.6066C3.18644 11.446 3.12101 11.2899 3.01197 11.1784C2.90292 11.0669 2.74589 11 2.59322 11C2.43619 11 2.28353 11.0669 2.17448 11.1784C2.06543 11.2899 2 11.4505 2 11.6066C2 11.7672 2.06543 11.9233 2.17448 12.0348C2.28353 12.1508 2.43619 12.2132 2.59322 12.2132Z" fill="#88CAB9"/>
</svg>
