<svg width="26" height="24" viewBox="0 0 26 24" fill="none" xmlns="http://www.w3.org/2000/svg">
<path d="M25.918 7.71008C25.8588 4.68307 24.028 1.91638 21.254 0.660641C19.9461 0.0686875 18.5183 -0.130498 17.1258 0.0834609C15.6398 0.312193 14.2393 0.987183 12.9598 2.09162C11.6807 0.987693 10.2802 0.312703 8.79423 0.0844797C7.40124 -0.129479 5.97343 0.0702158 4.66501 0.662169C1.89098 1.91689 0.0606918 4.68358 0.00148981 7.71008C-0.0422898 9.94646 0.87957 12.0957 2.66707 13.9261C2.70637 13.9663 3.10089 14.3683 7.52511 18.8742L12.2752 23.7117C12.4638 23.9037 12.7115 24 12.9598 24C13.2075 24 13.4558 23.9037 13.6443 23.7117L23.2524 13.9266C25.0399 12.0957 25.9618 9.94646 25.918 7.71008ZM7.38482 13.8094C7.72362 13.8094 8.04251 13.6245 8.21713 13.327L8.60369 12.6673L10.5479 15.7952C10.7404 16.1049 11.0693 16.2756 11.427 16.2532C11.7847 16.2302 12.0901 16.0188 12.2434 15.6872L15.0055 9.71773L16.883 13.2873C17.0527 13.6097 17.38 13.8099 17.7377 13.8099H20.6142L12.9598 21.6052L5.30479 13.8094H7.38482ZM14.9249 6.52414C14.5572 6.53382 14.2309 6.75134 14.0736 7.09113L11.2424 13.2104L9.39868 10.2445C9.21909 9.95563 8.91462 9.78446 8.5818 9.78446C8.57732 9.78446 8.57334 9.78446 8.56886 9.78446C8.22907 9.78905 7.92212 9.96939 7.74799 10.2669L6.83608 11.8227H3.42426C2.42678 10.5618 1.91486 9.15634 1.94222 7.75033C1.98749 5.44415 3.46804 3.29641 5.62667 2.40644C7.86938 1.48184 10.2922 2.11454 12.2732 4.14308C12.6518 4.53024 13.2672 4.53075 13.6458 4.14308C16.6308 1.08703 20.0331 1.64893 22.0803 3.56233C24.0146 5.36927 24.9564 8.71467 22.4958 11.8227H18.3178L15.8054 7.04579C15.6308 6.71415 15.292 6.51395 14.9249 6.52414Z" fill="#9E9E9E"/>
</svg>
