<svg width="25" height="27" viewBox="0 0 25 27" fill="none" xmlns="http://www.w3.org/2000/svg">
<path d="M10.1785 0.713892C10.7256 0.252855 11.4179 0 12.1333 0C12.8487 0 13.5411 0.252855 14.0881 0.713892L23.1881 8.38755C23.8717 8.96456 24.2667 9.81254 24.2667 10.7064V23.9223C24.2667 24.548 24.0181 25.1481 23.5757 25.5905C23.1332 26.033 22.5331 26.2815 21.9074 26.2815H17.1889C16.5632 26.2815 15.9631 26.033 15.5206 25.5905C15.0782 25.1481 14.8296 24.548 14.8296 23.9223V16.5074C14.8296 16.4181 14.7941 16.3323 14.7309 16.2691C14.6677 16.2059 14.582 16.1704 14.4926 16.1704H9.77407C9.68469 16.1704 9.59896 16.2059 9.53575 16.2691C9.47255 16.3323 9.43704 16.4181 9.43704 16.5074V23.9223C9.43704 24.548 9.18847 25.1481 8.74603 25.5905C8.30358 26.033 7.70349 26.2815 7.07778 26.2815H2.35926C2.04944 26.2815 1.74265 26.2205 1.45641 26.1019C1.17017 25.9834 0.910089 25.8096 0.691011 25.5905C0.471934 25.3714 0.298152 25.1114 0.179588 24.8251C0.0610242 24.5389 0 24.2321 0 23.9223V10.7064C0 9.81254 0.395007 8.96456 1.07852 8.38755L10.1785 0.713892ZM12.7845 2.26022C12.6022 2.10677 12.3716 2.02263 12.1333 2.02263C11.8951 2.02263 11.6645 2.10677 11.4822 2.26022L2.38218 9.93253C2.26957 10.0273 2.17901 10.1456 2.11684 10.279C2.05466 10.4124 2.02237 10.5578 2.02222 10.705V23.9209C2.02222 24.107 2.17321 24.258 2.35926 24.258H7.07778C7.16717 24.258 7.25289 24.2224 7.3161 24.1592C7.37931 24.096 7.41481 24.0103 7.41481 23.9209V16.5061C7.41481 15.2024 8.47176 14.1468 9.77407 14.1468H14.4926C15.7949 14.1468 16.8519 15.2024 16.8519 16.5061V23.9209C16.8519 24.107 17.0028 24.258 17.1889 24.258H21.9074C21.9968 24.258 22.0825 24.2224 22.1457 24.1592C22.2089 24.096 22.2444 24.0103 22.2444 23.9209V10.7064C22.2443 10.5592 22.212 10.4138 22.1498 10.2803C22.0877 10.1469 21.9971 10.0287 21.8845 9.93388L12.7845 2.26022Z" fill="white"/>
</svg>
