<svg width="26" height="16" viewBox="0 0 26 16" fill="none" xmlns="http://www.w3.org/2000/svg">
<path d="M20.8001 8.06404C20.8001 6.97203 19.9161 6.40003 18.7201 6.40003H15.2361C15.4961 5.46403 15.6001 4.58003 15.6001 3.80003C15.6001 0.784034 14.7681 0.160034 14.0401 0.160034C13.5721 0.160034 13.2081 0.212034 12.7401 0.472034C12.5841 0.576034 12.5321 0.680034 12.4801 0.836034L11.9601 3.64403C11.3881 5.10003 9.98409 6.40003 8.84009 7.28404V14.72C9.25609 14.72 9.67209 14.928 10.1921 15.188C10.7641 15.448 11.3361 15.76 11.9601 15.76H16.9001C17.9401 15.76 18.7201 14.928 18.7201 14.2C18.7201 14.044 18.7201 13.94 18.6681 13.836C19.2921 13.576 19.7601 13.056 19.7601 12.38C19.7601 12.068 19.7081 11.808 19.6041 11.548C20.0201 11.288 20.3841 10.82 20.3841 10.3C20.3841 9.98804 20.2281 9.67603 20.0721 9.41603C20.4881 9.10403 20.8001 8.58403 20.8001 8.06404ZM19.7081 8.06404C19.7081 8.74004 19.0321 8.79204 18.9281 9.10404C18.8241 9.46804 19.3441 9.57203 19.3441 10.196C19.3441 10.82 18.5641 10.82 18.4601 11.184C18.3561 11.6 18.7201 11.704 18.7201 12.328V12.432C18.6161 12.952 17.8361 13.004 17.6801 13.212C17.5241 13.472 17.6801 13.576 17.6801 14.148C17.6801 14.46 17.3161 14.668 16.9001 14.668H11.9601C11.5441 14.668 11.1281 14.46 10.6081 14.2C10.1921 13.992 9.77609 13.784 9.36009 13.68V8.22003C10.6601 7.23203 12.3241 5.77603 12.9481 3.95603V3.85203L13.4161 1.25203C13.6241 1.20003 13.7801 1.20003 14.0401 1.20003C14.1441 1.20003 14.5601 1.82403 14.5601 3.80003C14.5601 4.58003 14.4041 5.41203 14.1441 6.40003H14.0401C13.7281 6.40003 13.5201 6.60803 13.5201 6.92003C13.5201 7.23203 13.7281 7.44003 14.0401 7.44003H18.7201C19.2401 7.44003 19.7081 7.70004 19.7081 8.06404Z" fill="black"/>
<path d="M8.31991 15.76H5.19991C4.62791 15.76 4.15991 15.292 4.15991 14.72V7.44002C4.15991 6.86802 4.62791 6.40002 5.19991 6.40002H8.31991C8.89191 6.40002 9.35991 6.86802 9.35991 7.44002V14.72C9.35991 15.292 8.89191 15.76 8.31991 15.76ZM5.19991 7.44002V14.72H8.31991V7.44002H5.19991Z" fill="black"/>
</svg>
