<svg width="28" height="25" viewBox="0 0 28 25" fill="none" xmlns="http://www.w3.org/2000/svg">
<path d="M2 23.3448L3.73199 18.1489C2.23508 15.935 1.69356 13.3132 2.20813 10.771C2.7227 8.22884 4.25833 5.93926 6.5295 4.32799C8.80067 2.71671 11.6528 1.89338 14.5557 2.01108C17.4585 2.12878 20.2145 3.17949 22.3112 4.96787C24.408 6.75625 25.7027 9.16058 25.9548 11.7338C26.2068 14.3071 25.3991 16.8742 23.6816 18.9577C21.9642 21.0413 19.454 22.4996 16.6177 23.0615C13.7814 23.6234 10.8121 23.2506 8.26179 22.0125L2 23.3448Z" stroke="#9E9E9E" stroke-width="2.66667" stroke-linecap="round" stroke-linejoin="round"/>
<path d="M13.9907 12.6864V12.7006" stroke="#9E9E9E" stroke-width="2.66667" stroke-linecap="round" stroke-linejoin="round"/>
<path d="M8.66138 12.6864V12.7006" stroke="#9E9E9E" stroke-width="2.66667" stroke-linecap="round" stroke-linejoin="round"/>
<path d="M19.3199 12.6864V12.7006" stroke="#9E9E9E" stroke-width="2.66667" stroke-linecap="round" stroke-linejoin="round"/>
</svg>
