<svg width="20" height="21" viewBox="0 0 20 21" fill="none" xmlns="http://www.w3.org/2000/svg">
<path fill-rule="evenodd" clip-rule="evenodd" d="M17 8.58718C17 4.71414 14.7616 2.02602 11.8653 1.21903C11.7605 0.960155 11.5947 0.719494 11.3695 0.517554C10.5997 -0.172518 9.40028 -0.172518 8.63052 0.517554C8.40576 0.71905 8.24025 0.959097 8.13535 1.21732C5.23537 2.02079 3 4.70304 3 8.58718C3 11.1003 2.46898 12.5085 1.48596 13.529C1.32162 13.6996 0.876409 14.0904 0.57477 14.3551L0.574693 14.3552L0.574663 14.3552C0.43195 14.4805 0.321394 14.5775 0.287965 14.6097L0 14.8883V18.142H6.08797C6.29381 19.1554 6.87007 19.8334 7.91222 20.4402C9.19416 21.1866 10.8059 21.1866 12.0878 20.4402C13.0075 19.9047 13.6242 19.0817 13.8744 18.142H20V14.8883L19.712 14.6097C19.6818 14.5804 19.5761 14.4874 19.4379 14.3658L19.4372 14.3651L19.437 14.365L19.437 14.3649C19.1363 14.1002 18.6822 13.7006 18.5154 13.5267C17.5317 12.5014 17 11.0914 17 8.58718ZM11.7368 18.142H8.17857C8.31984 18.3928 8.56067 18.5822 8.95403 18.8113C9.59629 19.1852 10.4037 19.1852 11.046 18.8113C11.3435 18.6381 11.5759 18.4089 11.7368 18.142ZM17.0402 14.8153C17.2506 15.0346 17.7016 15.4355 18 15.6974V16.2338H1.99998V15.6978C2.29605 15.439 2.74842 15.0384 2.95847 14.8204C4.2942 13.4337 4.99998 11.5621 4.99998 8.58724C4.99998 4.98049 7.33275 2.87422 9.99998 2.87422C12.6597 2.87422 15 4.99136 15 8.58724C15 11.5525 15.706 13.4247 17.0402 14.8153Z" fill="black"/>
<path d="M18.2359 3.26243C18.2359 5.06422 16.7051 6.52486 14.8167 6.52486C12.9283 6.52486 11.3975 5.06422 11.3975 3.26243C11.3975 1.46064 12.9283 0 14.8167 0C16.7051 0 18.2359 1.46064 18.2359 3.26243Z" fill="#A0D083"/>
</svg>
