<svg width="31" height="28" viewBox="0 0 31 28" fill="none" xmlns="http://www.w3.org/2000/svg">
<path d="M28.6628 10.703L28.6629 10.7031C28.8172 10.9145 28.8807 11.1736 28.8404 11.4323L28.6628 10.703ZM28.6628 10.703C28.5083 10.492 28.28 10.3534 28.0214 10.3137L20.625 9.17141M28.6628 10.703L20.625 9.17141M9.74987 25.3368C9.27557 25.2633 8.9411 24.8071 9.01453 24.3323L9.73996 19.6358H9.63877M9.74987 25.3368L20.525 2.88023C20.525 2.39485 20.1302 2 19.6448 2H3.8802C3.39483 2 3 2.39485 3 2.88023V18.6555C3 19.1409 3.39483 19.5358 3.8802 19.5358H9.65422L9.63877 19.6358M9.74987 25.3368L25.3299 27.7431L9.74987 25.3368ZM9.63877 19.6358H3.8802C3.3396 19.6358 2.9 19.1961 2.9 18.6555V2.88023C2.9 2.33962 3.3396 1.9 3.8802 1.9H19.6448C20.1854 1.9 20.625 2.33962 20.625 2.88023V9.17141M9.63877 19.6358L8.9157 24.317C8.83382 24.8464 9.20575 25.3537 9.73457 25.4356L9.73461 25.4356L25.3146 27.8419L25.3147 27.8419C25.8326 27.9217 26.3523 27.5451 26.4327 27.0229L26.8355 24.4139C26.8585 24.2656 26.8182 24.1385 26.7381 24.0447C26.6599 23.9529 26.5484 23.8982 26.435 23.8807C26.3215 23.8631 26.1987 23.8815 26.0965 23.9454C25.9918 24.0108 25.9152 24.1198 25.8925 24.2683M20.625 9.17141L11.2458 19.6363H10.6042M25.8925 24.2683C25.8925 24.2683 25.8925 24.2682 25.8925 24.2682L25.9913 24.2835L25.8925 24.2683ZM25.8925 24.2683C25.8834 24.3268 25.8688 24.449 25.8498 24.6086C25.8413 24.679 25.832 24.7568 25.822 24.8396C25.7888 25.1122 25.7467 25.4437 25.6982 25.7634C25.6495 26.0839 25.5948 26.3893 25.5367 26.6109C25.5074 26.7226 25.4787 26.8074 25.4519 26.8611C25.4443 26.8765 25.4378 26.8873 25.4327 26.8945M25.4327 26.8945L9.8855 24.4933M25.4327 26.8945C25.4288 26.9002 25.4258 26.9038 25.4238 26.9057C25.4197 26.9097 25.4332 26.8948 25.4598 26.8987L25.4327 26.8945ZM9.8855 24.4933C9.86763 24.4882 9.86375 24.4825 9.86356 24.4823L9.86355 24.4822C9.86323 24.4818 9.85908 24.4762 9.85958 24.4579M9.8855 24.4933C9.88671 24.4936 9.88797 24.494 9.88931 24.4943L9.86505 24.5913L9.88032 24.4925L9.8855 24.4933ZM9.85958 24.4579L10.6042 19.6363M9.85958 24.4579L9.85876 24.4632L9.75993 24.448L9.85976 24.4539C9.85967 24.4553 9.85962 24.4566 9.85958 24.4579ZM10.6042 19.6363H10.5184V19.5363L10.6172 19.5515L10.6042 19.6363ZM27.1293 22.5116L28.8404 11.4324L26.6915 11.8103L26.7067 11.7115L26.7066 11.7115L20.625 10.7719V10.1373L27.8706 11.2565C27.8887 11.2616 27.8925 11.2673 27.8926 11.2674C27.8927 11.2676 27.897 11.2729 27.8965 11.2919L26.1862 22.3659C26.1637 22.5119 26.2048 22.6376 26.2843 22.7307C26.362 22.8219 26.4726 22.8778 26.5856 22.8969C26.6987 22.916 26.8216 22.8995 26.9245 22.8361C27.0298 22.7711 27.1062 22.6615 27.1293 22.5116C27.1293 22.5116 27.1293 22.5116 27.1293 22.5116ZM10.7488 23.5094C10.7171 23.7151 10.8579 23.9078 11.0641 23.94L24.498 26.0148L10.7488 23.5094ZM26.3338 27.0077L26.7367 24.3987L26.3338 27.0077ZM3.85446 18.6555V2.88023C3.85446 2.86605 3.86602 2.85449 3.8802 2.85449H19.6448C19.659 2.85449 19.6706 2.86605 19.6706 2.88023V18.6555C19.6706 18.6697 19.659 18.6813 19.6448 18.6813H3.8802C3.86602 18.6813 3.85446 18.6697 3.85446 18.6555ZM26.0895 12.5815L24.1569 25.0964L11.6666 23.1678L12.2122 19.6358H19.6448C20.1854 19.6358 20.625 19.1961 20.625 18.6555V11.7378L26.0895 12.5815Z" fill="black" stroke="black" stroke-width="0.2"/>
<path d="M5.44284 5.8445V4.43603H18.0817V17.0995H5.44284V7.85043C5.44284 7.70024 5.38367 7.5808 5.29025 7.50025C5.1989 7.42148 5.08041 7.3845 4.96561 7.3845C4.8508 7.3845 4.73231 7.42148 4.64096 7.50025C4.54755 7.5808 4.48838 7.70024 4.48838 7.85043V17.5763C4.48838 17.8397 4.70215 18.0535 4.96561 18.0535H18.5589C18.8224 18.0535 19.0361 17.8397 19.0361 17.5763V3.95879L19.0361 3.95854C19.0355 3.69473 18.8218 3.48154 18.5584 3.48154H4.96561C4.70214 3.48154 4.48838 3.69532 4.48838 3.95879V5.8445C4.48838 5.99469 4.54755 6.11413 4.64096 6.19468C4.73231 6.27345 4.8508 6.31043 4.96561 6.31043C5.08041 6.31043 5.1989 6.27345 5.29025 6.19468C5.38367 6.11413 5.44284 5.99469 5.44284 5.8445Z" fill="black" stroke="black" stroke-width="0.2"/>
<path d="M9.85225 7.72997C8.9763 7.72997 8.24215 8.54671 8.24215 9.57906C8.24215 10.7132 8.94798 11.6468 9.75815 12.3438C10.535 13.012 11.392 13.4487 11.7601 13.6204C12.1257 13.446 12.9763 13.0034 13.7511 12.3321C14.5592 11.6317 15.2677 10.6975 15.2829 9.57267C15.2955 8.6515 14.6214 7.72997 13.6728 7.72997C13.0488 7.72997 12.4699 8.14976 12.2061 8.81564C12.0495 9.2112 11.4756 9.21121 11.319 8.81567L9.85225 7.72997ZM9.85225 7.72997C10.4757 7.72997 11.0551 8.15024 11.319 8.81564L9.85225 7.72997ZM11.9456 14.5842L11.9459 14.5841C11.9916 14.565 13.0069 14.1384 14.0402 13.3317C15.4499 12.2315 16.2192 10.9368 16.2374 9.58544C16.2566 8.17005 15.1783 6.77549 13.6728 6.77549C12.929 6.77549 12.2395 7.12584 11.7625 7.70705C11.2856 7.12584 10.5961 6.77549 9.85225 6.77549C8.42949 6.77549 7.2877 8.04188 7.2877 9.57906C7.2877 11.2038 8.33171 12.4405 9.37704 13.2724C10.4245 14.106 11.4928 14.5492 11.583 14.5859L11.5839 14.5863C11.6413 14.609 11.7016 14.6204 11.7625 14.6204C11.8247 14.6204 11.887 14.6084 11.9456 14.5842Z" fill="black" stroke="black" stroke-width="0.2"/>
</svg>
