<svg width="23" height="23" viewBox="0 0 23 23" fill="none" xmlns="http://www.w3.org/2000/svg">
<path d="M15.8813 14.0251H14.9037L14.5572 13.691C15.77 12.2802 16.5001 10.4487 16.5001 8.45635C16.5001 4.01372 12.899 0.412598 8.45635 0.412598C4.01372 0.412598 0.412598 4.01372 0.412598 8.45635C0.412598 12.899 4.01372 16.5001 8.45635 16.5001C10.4487 16.5001 12.2802 15.77 13.691 14.5572L14.0251 14.9037V15.8813L20.2126 22.0565L22.0565 20.2126L15.8813 14.0251ZM8.45635 14.0251C5.37497 14.0251 2.8876 11.5377 2.8876 8.45635C2.8876 5.37497 5.37497 2.8876 8.45635 2.8876C11.5377 2.8876 14.0251 5.37497 14.0251 8.45635C14.0251 11.5377 11.5377 14.0251 8.45635 14.0251Z" fill="black"/>
</svg>
