<svg width="16" height="16" viewBox="0 0 16 16" fill="none" xmlns="http://www.w3.org/2000/svg">
<path fill-rule="evenodd" clip-rule="evenodd" d="M5.23813 3.6743H3.70139V2.91069H2.16462V5.2016H14.4585V2.91069H12.9218V3.6743H11.3851V2.91069H5.23813V3.6743ZM14.4585 6.72886H2.16462V14.3652H14.4585V6.72886ZM11.3851 1.38338H5.23813V0.619751H3.70139V1.38338H2.16466C1.31595 1.38338 0.62793 2.06716 0.62793 2.91065V14.3652C0.62793 15.2087 1.31595 15.8925 2.16466 15.8925H14.4585C15.3073 15.8925 15.9953 15.2087 15.9953 14.3652V2.91065C15.9953 2.06716 15.3073 1.38338 14.4585 1.38338H12.9218V0.619751H11.3851V1.38338ZM6.0065 9.7834H4.46977V8.25607H6.0065V9.7834ZM7.54324 9.7834H9.07998V8.25607H7.54324V9.7834ZM12.1534 9.7834H10.6167V8.25607H12.1534V9.7834ZM4.46977 12.8379H6.0065V11.3106H4.46977V12.8379ZM9.07998 12.8379H7.54324V11.3106H9.07998V12.8379Z" fill="#BBBBBB"/>
</svg>
