<svg width="31" height="31" viewBox="0 0 31 31" fill="none" xmlns="http://www.w3.org/2000/svg">
<g clip-path="url(#clip0)">
<path d="M11.7213 26.8374L10.6617 25.0022C10.5364 24.7848 10.2585 24.7104 10.0417 24.8363L7.12398 26.5213L7.99404 20.5762C8.00857 20.4751 7.9892 20.3722 7.93773 20.2832L6.87816 18.448C6.75283 18.2306 6.47492 18.1562 6.25756 18.2821L0.227691 21.7635C0.12355 21.8235 0.0472613 21.9228 0.0163824 22.039C-0.0144965 22.1553 0.00124565 22.2794 0.0617925 22.3835L1.12015 24.2187C1.18009 24.3229 1.27939 24.3991 1.39564 24.43C1.51189 24.4609 1.63601 24.4452 1.74015 24.3846L4.65791 22.6996C4.38363 24.5759 3.78785 28.6447 3.78785 28.6447C3.77332 28.7458 3.79269 28.8487 3.84416 28.9377L4.90433 30.7729C4.98849 30.9188 5.14107 31 5.29789 31C5.37478 31 5.45289 30.9806 5.52433 30.9388L11.5542 27.4574C11.6583 27.3974 11.7346 27.2981 11.7655 27.1819C11.7976 27.0656 11.7812 26.9415 11.7213 26.8374ZM5.46439 29.9259L4.71058 28.6205C5.6981 21.8707 5.6981 21.8707 5.6981 21.838C5.6981 21.6757 5.61152 21.5256 5.47105 21.4451C5.33058 21.3639 5.15742 21.3639 5.01695 21.4451L1.68021 23.3711L1.07474 22.3224L6.3181 19.295L7.07191 20.6004L6.08923 27.3169C6.06381 27.4895 6.13949 27.6608 6.28359 27.7583C6.42769 27.8558 6.61478 27.863 6.76554 27.7758L10.1023 25.8492L10.7078 26.8979L5.46439 29.9259Z" fill="#8498CD"/>
<path d="M20.5763 20.879L19.8394 18.1301C19.8079 18.0139 19.7322 17.9146 19.6281 17.8547C19.5239 17.7947 19.3998 17.7784 19.2836 17.8092L14.771 19.0184L17.9994 11.6462C18.0406 11.5517 18.049 11.4464 18.0218 11.3465L17.2855 8.59765C17.254 8.4814 17.1784 8.3821 17.0742 8.32216C16.9701 8.26222 16.846 8.24587 16.7297 8.27675L7.78149 10.6744C7.66524 10.7059 7.56595 10.7816 7.50601 10.8857C7.44546 10.9899 7.42972 11.114 7.4606 11.2302L8.19685 13.9791C8.26163 14.2212 8.51048 14.3653 8.75327 14.2999L13.2658 13.0908L10.0375 20.463C9.9963 20.5575 9.98782 20.6628 10.0151 20.7627L10.7513 23.5115C10.8058 23.7144 10.9893 23.8482 11.1897 23.8482C11.2284 23.8482 11.2684 23.8433 11.3077 23.8324L20.256 21.4348C20.4975 21.37 20.6416 21.1212 20.5763 20.879ZM11.5112 22.8383L10.9336 20.6822L14.4768 12.5901C14.547 12.4303 14.5191 12.2444 14.4053 12.1118C14.2915 11.9792 14.1117 11.9241 13.9433 11.9689L8.95731 13.3052L8.45599 11.4337L16.5269 9.27093L17.1045 11.427L13.5613 19.5191C13.4911 19.6789 13.5189 19.8648 13.6327 19.9974C13.7466 20.13 13.9264 20.1851 14.0947 20.1403L19.0807 18.804L19.5821 20.6755L11.5112 22.8383Z" fill="#8498CD"/>
<path d="M30.5459 12.2305H24.487L30.9001 4.25039C30.9649 4.16986 31.0006 4.06936 31.0006 3.96582V0.454102C31.0006 0.203438 30.7972 0 30.5465 0H19.0426C18.7919 0 18.5885 0.203438 18.5885 0.454102V3.96582C18.5885 4.21648 18.7919 4.41992 19.0426 4.41992H25.0961L22.7572 7.33283C22.6003 7.5284 22.6312 7.81418 22.8268 7.971C23.0223 8.12781 23.3081 8.09693 23.4649 7.90137L26.3966 4.25039C26.5062 4.11416 26.5274 3.92707 26.4517 3.76965C26.376 3.61223 26.2168 3.51172 26.0424 3.51172H19.4961V0.908203H30.0918V3.80598L23.1852 12.4C23.0756 12.5362 23.0538 12.7233 23.1295 12.8807C23.2052 13.0382 23.3644 13.1387 23.5388 13.1387H30.0918V15.7422H19.4961V12.8444L22.3279 9.31756C22.4847 9.12199 22.4538 8.83621 22.2582 8.67939C22.0627 8.52258 21.7769 8.55346 21.6201 8.74902L18.6884 12.4C18.6236 12.4805 18.5885 12.581 18.5885 12.6846V16.1963C18.5885 16.447 18.7919 16.6504 19.0426 16.6504H30.5465C30.7972 16.6504 31.0006 16.447 31.0006 16.1963V12.6846C31 12.4339 30.7966 12.2305 30.5459 12.2305Z" fill="#8498CD"/>
</g>
<defs>
<clipPath id="clip0">
<rect width="31" height="31" fill="white"/>
</clipPath>
</defs>
</svg>
