<svg width="44" height="44" viewBox="0 0 44 44" fill="none" xmlns="http://www.w3.org/2000/svg">
<circle cx="22" cy="22" r="22" fill="#F9AE41"/>
<path d="M21.2798 11.4399C19.8239 11.4399 18.6398 12.6241 18.6398 14.0799C18.6398 15.5358 19.8239 16.7199 21.2798 16.7199C22.7356 16.7199 23.9198 15.5358 23.9198 14.0799C23.9198 12.6241 22.7356 11.4399 21.2798 11.4399ZM14.0798 13.5437C13.8185 13.5437 13.5573 13.6424 13.3598 13.8399C12.9647 14.235 12.9647 14.8849 13.3598 15.2799C15.1199 16.8798 16.8796 18.4801 18.6398 20.0799V31.8399C18.6546 32.4323 19.0655 32.9291 19.5998 33.0399C20.217 33.1681 20.877 32.7553 21.0398 32.0799V25.8399H21.5198V32.0799C21.6825 32.7553 22.3425 33.1681 22.9598 33.0399C23.494 32.9291 23.9049 32.4323 23.9198 31.8399V20.0799L28.7198 15.2799C29.1148 14.8849 29.1148 14.235 28.7198 13.8399C28.3247 13.4449 27.6748 13.4449 27.2798 13.8399L23.4398 17.6799H19.1198C17.6798 16.3998 16.2398 15.1201 14.7998 13.8399C14.6022 13.6424 14.341 13.5437 14.0798 13.5437Z" fill="white"/>
</svg>
