<svg width="33" height="43" viewBox="0 0 33 43" fill="none" xmlns="http://www.w3.org/2000/svg">
<path d="M17.1539 20.5417C16.979 20.7166 16.7474 20.8124 16.5 20.8124C16.2535 20.8124 16.021 20.7166 15.8461 20.5417L11.2063 15.9019C9.83772 14.5333 9.83772 12.3058 11.2063 10.9372C12.5749 9.56861 14.8024 9.56861 16.1718 10.9372L16.5 11.2654L16.8282 10.9372C18.1968 9.56861 20.4243 9.56861 21.7929 10.9372C23.1615 12.3058 23.1615 14.5333 21.7929 15.9019L17.1539 20.5417ZM20.9099 11.8202C20.4692 11.3795 19.8903 11.1588 19.3105 11.1588C18.7316 11.1588 18.1527 11.3795 17.7112 11.8202L16.9415 12.5899C16.8241 12.7073 16.6658 12.7731 16.5 12.7731C16.3343 12.7731 16.1752 12.7073 16.0585 12.5899L15.2888 11.8202C14.8615 11.3929 14.2942 11.158 13.6895 11.158C13.0847 11.158 12.5175 11.3929 12.0901 11.8202C11.2088 12.7015 11.2088 14.1368 12.0901 15.0181L16.5 19.428L20.9099 15.0181C21.7912 14.1359 21.7912 12.7015 20.9099 11.8202Z" fill="white"/>
<path d="M23.2102 22.8691H23.9099V22.1694C23.9099 21.8246 24.1898 21.5447 24.5347 21.5447C24.8795 21.5447 25.1594 21.8246 25.1594 22.1694V22.8691H25.8591C26.204 22.8691 26.4839 23.149 26.4839 23.4939C26.4839 23.8387 26.204 24.1186 25.8591 24.1186H25.1594V24.8184C25.1594 25.1632 24.8795 25.4431 24.5347 25.4431C24.1898 25.4431 23.9099 25.1632 23.9099 24.8184V24.1186H23.2102C22.8654 24.1186 22.5855 23.8387 22.5855 23.4939C22.5855 23.149 22.8654 22.8691 23.2102 22.8691Z" fill="white"/>
<path d="M23.2102 27.5813H23.9099V26.8816C23.9099 26.5367 24.1898 26.2568 24.5347 26.2568C24.8795 26.2568 25.1594 26.5367 25.1594 26.8816V27.5813H25.8591C26.204 27.5813 26.4839 27.8612 26.4839 28.206C26.4839 28.5509 26.204 28.8308 25.8591 28.8308H25.1594V29.5305C25.1594 29.8754 24.8795 30.1553 24.5347 30.1553C24.1898 30.1553 23.9099 29.8754 23.9099 29.5305V28.8308H23.2102C22.8654 28.8308 22.5855 28.5509 22.5855 28.206C22.5855 27.8612 22.8654 27.5813 23.2102 27.5813Z" fill="white"/>
<path d="M24.5347 34.8668C24.1898 34.8668 23.9099 34.5869 23.9099 34.2421V33.5423H23.2102C22.8654 33.5423 22.5855 33.2625 22.5855 32.9176C22.5855 32.5727 22.8654 32.2928 23.2102 32.2928H23.9099V31.5931C23.9099 31.2483 24.1898 30.9684 24.5347 30.9684C24.8795 30.9684 25.1594 31.2483 25.1594 31.5931V32.2928H25.8591C26.204 32.2928 26.4839 32.5727 26.4839 32.9176C26.4839 33.2625 26.204 33.5423 25.8591 33.5423H25.1594V34.2421C25.1594 34.5878 24.8795 34.8668 24.5347 34.8668Z" fill="white"/>
<path d="M7.14085 24.1935H20.3088C20.6537 24.1935 20.9336 24.4734 20.9336 24.8182C20.9336 25.1631 20.6537 25.443 20.3088 25.443H7.14002C6.79516 25.443 6.51527 25.1631 6.51527 24.8182C6.5161 24.4734 6.79599 24.1935 7.14085 24.1935Z" fill="white"/>
<path d="M7.14085 28.9058H20.3088C20.6537 28.9058 20.9336 29.1856 20.9336 29.5305C20.9336 29.8754 20.6537 30.1553 20.3088 30.1553H7.14002C6.79516 30.1553 6.51527 29.8754 6.51527 29.5305C6.51527 29.1856 6.79599 28.9058 7.14085 28.9058Z" fill="white"/>
<path d="M7.14085 33.6172H20.3088C20.6537 33.6172 20.9336 33.8971 20.9336 34.2419C20.9336 34.5868 20.6537 34.8667 20.3088 34.8667H7.14002C6.79516 34.8667 6.51527 34.5868 6.51527 34.2419C6.51527 33.8971 6.79599 33.6172 7.14085 33.6172Z" fill="white"/>
<path d="M13.1668 3.66771C12.8219 3.66771 12.542 3.38782 12.542 3.04296C12.542 2.6981 12.8219 2.41821 13.1668 2.41821C13.5116 2.41821 13.7915 2.6981 13.7915 3.04296C13.7915 3.38782 13.5125 3.66771 13.1668 3.66771Z" fill="white"/>
<path d="M20.458 3.04296C20.458 3.38782 20.1781 3.66771 19.8333 3.66771C19.4884 3.66771 19.2085 3.38782 19.2085 3.04296C19.2085 2.6981 19.4884 2.41821 19.8333 2.41821C20.1781 2.41821 20.458 2.6981 20.458 3.04296Z" fill="white"/>
<path d="M1.45778 2.41819H9.09469V1.04124C9.09469 0.467311 9.562 0 10.1359 0H22.8641C23.438 0 23.9054 0.467311 23.9054 1.04124V2.41819H31.5423C32.3461 2.41819 33 3.07209 33 3.87593V10.195C33 10.5399 32.7201 10.8198 32.3753 10.8198C32.0304 10.8198 31.7505 10.5399 31.7505 10.195V3.87593C31.7505 3.76098 31.6572 3.66768 31.5423 3.66768H29.7072C29.7172 3.73599 29.7238 3.80512 29.7238 3.87593V37.3132C29.7238 38.1171 29.0699 38.771 28.2661 38.771H4.73312C3.92928 38.771 3.27538 38.1171 3.27538 37.3132V33.618C3.27538 33.2732 3.55527 32.9933 3.90013 32.9933C4.24499 32.9933 4.52487 33.2732 4.52487 33.618V37.3132C4.52487 37.4282 4.61817 37.5215 4.73312 37.5215H28.2661C28.381 37.5215 28.4743 37.4282 28.4743 37.3132V3.87593C28.4743 3.76098 28.381 3.66768 28.2661 3.66768H23.9045V5.04462C23.9045 5.61856 23.4372 6.08587 22.8633 6.08587H14.5275C14.1826 6.08587 13.9027 5.80598 13.9027 5.46112C13.9027 5.11626 14.1826 4.83637 14.5275 4.83637H22.655V1.24949H10.3433V4.83637H11.8044C12.1493 4.83637 12.4292 5.11626 12.4292 5.46112C12.4292 5.80598 12.1493 6.08587 11.8044 6.08587H10.1351C9.56116 6.08587 9.09385 5.61856 9.09385 5.04462V3.66768H4.73229C4.61733 3.66768 4.52404 3.76098 4.52404 3.87593V30.9533C4.52404 31.2981 4.24415 31.578 3.89929 31.578C3.55443 31.578 3.27455 31.2981 3.27455 30.9533V3.87593C3.27455 3.80512 3.28121 3.73599 3.29121 3.66768H1.45695C1.342 3.66768 1.2487 3.76098 1.2487 3.87593V41.1916C1.2487 41.3066 1.342 41.3999 1.45695 41.3999H31.5423C31.6572 41.3999 31.7505 41.3066 31.7505 41.1916V12.9181C31.7505 12.5732 32.0304 12.2934 32.3753 12.2934C32.7201 12.2934 33 12.5732 33 12.9181V41.1916C33 41.9955 32.3461 42.6494 31.5423 42.6494H1.45778C0.653942 42.6494 3.8147e-05 41.9955 3.8147e-05 41.1916V3.87593C3.8147e-05 3.07209 0.653942 2.41819 1.45778 2.41819Z" fill="white"/>
</svg>
