<svg width="27" height="22" viewBox="0 0 27 22" fill="none" xmlns="http://www.w3.org/2000/svg">
<path d="M17.5456 1.13774C17.4789 0.922513 17.3314 0.743727 17.1379 0.6401C16.9445 0.537611 16.7194 0.518252 16.5128 0.588855L13.0834 1.7504C12.6529 1.89616 12.4168 2.37786 12.5567 2.82653L12.7283 3.37655L4.00733 10.0531L0.565948 11.2181C0.3594 11.2876 0.187822 11.4413 0.0894657 11.6429C-0.0088908 11.8444 -0.0274693 12.079 0.0402874 12.2942L2.13091 18.997C2.24347 19.358 2.56477 19.5869 2.91011 19.5869C2.99426 19.5869 3.0795 19.5732 3.16365 19.5448L6.60394 18.3798L8.37108 18.39C8.72626 20.1369 10.2169 21.451 11.9972 21.451C13.7632 21.451 15.244 20.1563 15.6145 18.4299L17.4275 18.4401L17.5991 18.9902C17.6658 19.2054 17.8133 19.3842 18.0067 19.4878C18.1226 19.5493 18.2504 19.5812 18.3783 19.5812C18.4635 19.5812 18.5488 19.5675 18.6318 19.5391L22.0612 18.3787C22.4918 18.2329 22.7278 17.7512 22.588 17.3025L17.5456 1.13774ZM3.43577 17.6567L1.85223 12.5778L3.8587 11.8979L5.44224 16.9768L3.43577 17.6567ZM11.9961 19.7429C11.1316 19.7429 10.3907 19.186 10.0825 18.3992L13.9031 18.4196C13.5905 19.1963 12.8539 19.7429 11.9961 19.7429ZM7.07168 16.6751L6.20942 13.9101L5.34717 11.1452L13.2616 5.08812L15.6888 12.8716L16.892 16.7286L7.07168 16.6751ZM18.9029 17.6498L18.8023 17.3276C18.8023 17.3264 18.8023 17.3264 18.8023 17.3253L16.6363 10.3811L14.3697 3.11236L16.2396 2.47921L20.7727 17.0178L18.9029 17.6498Z" fill="black"/>
<path d="M20.3064 5.29014C20.4255 5.35391 20.5523 5.38352 20.6779 5.38352C20.9763 5.38352 21.2637 5.21271 21.4091 4.91663L22.88 1.90915C23.0855 1.48894 22.9248 0.974221 22.5227 0.760133C22.1194 0.546045 21.6254 0.712305 21.42 1.13365L19.949 4.14113C19.7425 4.56133 19.9031 5.07605 20.3064 5.29014Z" fill="black"/>
<path d="M26.4666 13.4118L23.5793 11.8791C23.176 11.665 22.6821 11.8324 22.4766 12.2526C22.2712 12.6728 22.4318 13.1875 22.8351 13.4016L25.7213 14.9344C25.8404 14.997 25.9672 15.0278 26.0929 15.0278C26.3912 15.0278 26.6786 14.8569 26.824 14.5609C27.0294 14.1407 26.8699 13.6259 26.4666 13.4118Z" fill="black"/>
<path d="M22.3201 8.45685C22.4326 8.81784 22.7539 9.04673 23.0993 9.04673C23.1834 9.04673 23.2687 9.03307 23.3528 9.0046L26.4336 7.96149C26.8641 7.81573 27.1002 7.33403 26.9592 6.88536C26.8193 6.43669 26.3571 6.19185 25.9265 6.33648L22.8468 7.38072C22.4162 7.52648 22.1802 8.00818 22.3201 8.45685Z" fill="black"/>
</svg>
