<svg width="31" height="24" viewBox="0 0 31 24" fill="none" xmlns="http://www.w3.org/2000/svg">
<path d="M29.3109 4.27583C29.188 4.27182 28.0737 4.23745 26.4415 4.27125V0.920668C26.4415 0.664606 26.3304 0.417708 26.1369 0.244136C25.9405 0.0676989 25.6854 -0.0176554 25.419 0.00411283C22.395 0.249864 17.8911 1.54679 15.1111 4.39155C12.3311 1.54679 7.82779 0.249864 4.80322 0.00411283C4.5398 -0.0170825 4.27815 0.071136 4.0847 0.244709C3.89126 0.418281 3.78072 0.664606 3.78072 0.920668V4.36291C2.94461 4.33255 2.14907 4.30963 1.30826 4.28557L0.972521 4.27583C0.715573 4.26839 0.472737 4.36004 0.287523 4.53476C0.101721 4.70948 0 4.94435 0 5.19525V20.905C0 21.3874 0.386891 21.7906 0.880796 21.8227C1.39998 21.8565 1.97326 21.8863 2.58065 21.9178C6.11265 22.1011 10.95 22.352 14.7407 23.9274C14.8706 23.9812 14.9976 24.0001 15.1099 24.0001C15.2834 24.0001 15.4216 23.9554 15.481 23.9268L15.4815 23.9274C15.4821 23.9274 15.4821 23.9268 15.4827 23.9268C19.2734 22.352 24.1096 22.1011 27.641 21.9184C28.2484 21.8869 28.8217 21.8571 29.3414 21.8233C29.8353 21.7912 30.2222 21.3879 30.2222 20.9056V5.19525C30.2222 4.69745 29.8218 4.29359 29.3109 4.27583ZM16.0554 20.8082V6.12957C18.0681 3.69726 21.8711 2.36596 24.5535 1.95752V16.6299C22.2598 17.1351 18.9506 18.2699 16.0554 20.8082ZM18.8289 21.011C21.2867 19.3452 23.8932 18.6085 25.6713 18.2831C26.1175 18.2017 26.4415 17.8214 26.4415 17.3791V6.11181C27.0801 6.09863 27.7157 6.09405 28.3336 6.09921V20.0394C28.0737 20.0538 27.8044 20.0675 27.5275 20.0818C25.0027 20.213 21.8799 20.3751 18.8289 21.011ZM14.1668 6.12957V20.8082C11.2716 18.2699 7.96244 17.1351 5.66873 16.6299V1.95752C8.35109 2.36653 12.1542 3.69726 14.1668 6.12957ZM4.55038 18.2831C6.32844 18.6085 8.93496 19.3446 11.3927 21.011C8.34227 20.3751 5.21833 20.213 2.69295 20.0818C2.41601 20.0675 2.14789 20.0538 1.88801 20.0394V6.14274C2.44424 6.15878 3.0969 6.17883 3.78013 6.20347V17.3786C3.78072 17.8214 4.1047 18.2017 4.55038 18.2831Z" fill="#9E9E9E"/>
<path d="M11.9637 8.04904C11.2728 7.57987 10.0816 7.00416 8.81035 6.79507C8.56164 6.75383 8.31175 6.80997 8.10595 6.95203C7.90016 7.09467 7.76375 7.30605 7.722 7.54837C7.68025 7.79068 7.73729 8.03414 7.8837 8.23464C8.0301 8.43513 8.24707 8.56746 8.49578 8.60871C9.46066 8.76739 10.3856 9.21936 10.8848 9.55849C11.0447 9.66733 11.2311 9.72404 11.4228 9.72404C11.4786 9.72404 11.5345 9.71946 11.5909 9.70972C11.839 9.66676 12.0554 9.53156 12.1995 9.32992C12.3435 9.12828 12.3988 8.88425 12.3541 8.64193C12.3088 8.40019 12.1707 8.18938 11.9637 8.04904Z" fill="#9E9E9E"/>
<path d="M11.872 12.9051C11.2375 12.5276 9.9957 11.8648 8.80975 11.67C8.56103 11.6288 8.31114 11.6849 8.10534 11.827C7.89955 11.9696 7.76314 12.181 7.72139 12.4233C7.67964 12.6656 7.73668 12.9097 7.88309 13.1096C8.02949 13.3101 8.24646 13.4424 8.49517 13.4837C9.40184 13.6332 10.4702 14.2266 10.8877 14.4753C11.0411 14.5663 11.2105 14.6099 11.378 14.6099C11.6967 14.6099 12.0078 14.4535 12.1853 14.1699C12.457 13.7369 12.3165 13.1692 11.872 12.9051Z" fill="#9E9E9E"/>
<path d="M22.1163 6.95151C21.9105 6.80945 21.6606 6.75331 21.4125 6.79455C20.1412 7.00364 18.95 7.57935 18.2591 8.04852C17.8317 8.33838 17.7264 8.91294 18.0239 9.3294C18.168 9.53105 18.3844 9.66567 18.6325 9.7092C18.6883 9.71894 18.7448 9.72352 18.8007 9.72352C18.9917 9.72352 19.1781 9.66681 19.3381 9.55797C19.8373 9.21942 20.7622 8.76744 21.727 8.60819C22.2403 8.52398 22.5872 8.04794 22.5008 7.54785C22.4585 7.30611 22.3221 7.09415 22.1163 6.95151Z" fill="#9E9E9E"/>
<path d="M22.1169 11.827C21.9111 11.6843 21.6612 11.6288 21.4125 11.67C20.2266 11.8654 18.9853 12.5276 18.3503 12.9051C17.9058 13.1697 17.7653 13.7369 18.0369 14.1699C18.2145 14.4535 18.5261 14.6099 18.8442 14.6099C19.0118 14.6099 19.1817 14.5663 19.3346 14.4753C19.7521 14.2266 20.8204 13.6332 21.7271 13.4837C22.2404 13.3994 22.5873 12.9234 22.5009 12.4233C22.4585 12.181 22.3221 11.969 22.1169 11.827Z" fill="#9E9E9E"/>
</svg>
