<svg width="18" height="18" viewBox="0 0 18 18" fill="none" xmlns="http://www.w3.org/2000/svg">
<path d="M17.2039 13.0896L17.2042 13.0902C17.4096 13.4798 17.5107 13.9159 17.4977 14.3562C17.4847 14.7964 17.358 15.2258 17.1299 15.6026C16.9018 15.9794 16.5802 16.2907 16.1961 16.5064C15.8123 16.722 15.3793 16.8346 14.939 16.8334M17.2039 13.0896L14.9399 16.3334M17.2039 13.0896L11.2646 1.86159L11.2642 1.86096C11.0461 1.45005 10.7202 1.10628 10.3216 0.866534C9.92289 0.62679 9.46646 0.500122 9.00125 0.500122C8.53604 0.500122 8.07961 0.62679 7.68093 0.866534C7.28226 1.10628 6.95638 1.45005 6.73827 1.86096L6.73794 1.86159L0.798608 13.0896L0.798292 13.0902C0.592876 13.4798 0.491761 13.9159 0.504777 14.3562C0.517793 14.7964 0.644498 15.2258 0.872573 15.6026L1.30031 15.3437L0.872573 15.6026C1.10065 15.9794 1.42233 16.2907 1.80635 16.5064C2.19019 16.722 2.62324 16.8346 3.06345 16.8334M17.2039 13.0896L3.06258 16.3334M14.939 16.8334C14.9388 16.8334 14.9386 16.8334 14.9384 16.8334L14.9399 16.3334M14.939 16.8334H14.9399V16.3334M14.939 16.8334H3.06345M14.9399 16.3334H3.06258M3.06345 16.8334C3.06367 16.8334 3.06389 16.8334 3.06411 16.8334L3.06258 16.3334M3.06345 16.8334H3.06258V16.3334M9.00125 13.8334C8.90236 13.8334 8.80569 13.8041 8.72346 13.7491C8.64124 13.6942 8.57715 13.6161 8.53931 13.5247C8.50146 13.4334 8.49156 13.3328 8.51086 13.2358C8.53015 13.1389 8.57777 13.0498 8.64769 12.9798C8.71762 12.9099 8.80671 12.8623 8.9037 12.843C9.00069 12.8237 9.10123 12.8336 9.19259 12.8714C9.28395 12.9093 9.36204 12.9734 9.41698 13.0556C9.47192 13.1378 9.50125 13.2345 9.50125 13.3334C9.50125 13.466 9.44857 13.5932 9.3548 13.6869C9.26103 13.7807 9.13386 13.8334 9.00125 13.8334ZM9.46902 6.16672L9.19819 10.5001H8.80431L8.53347 6.16672H9.46902Z" fill="#EC4848" stroke="white"/>
</svg>
