<svg width="31" height="31" viewBox="0 0 31 31" fill="none" xmlns="http://www.w3.org/2000/svg">
<g clip-path="url(#clip0)">
<path d="M29.1051 21.3475V4.18804C29.1051 3.17473 28.281 2.35058 27.2677 2.35058H22.8999V1.74814C22.8999 0.751689 22.089 -0.0592041 21.0926 -0.0592041C20.0962 -0.0592041 19.2853 0.751689 19.2853 1.74814V2.35058H9.52563V1.74814C9.52563 0.751689 8.71473 -0.0592041 7.71829 -0.0592041C6.72184 -0.0592041 5.91095 0.751689 5.91095 1.74814V2.35058H1.54321C0.529896 2.35058 -0.29425 3.17473 -0.29425 4.18804V26.5388C-0.29425 27.5521 0.529896 28.3763 1.54321 28.3763H9.75456C10.0871 28.3763 10.357 28.1064 10.357 27.7738C10.357 27.4413 10.0871 27.1714 9.75456 27.1714H1.54321C1.19439 27.1714 0.910643 26.8876 0.910643 26.5388V4.18804C0.910643 3.83923 1.19439 3.55547 1.54321 3.55547H5.91095V4.15792C5.91095 5.15437 6.72184 5.96526 7.71829 5.96526C8.71473 5.96526 9.52563 5.15437 9.52563 4.15792V3.55547H19.2853V4.15792C19.2853 5.15437 20.0962 5.96526 21.0926 5.96526C22.089 5.96526 22.8999 5.15437 22.8999 4.15792V3.55547H27.2677C27.6165 3.55547 27.9002 3.83923 27.9002 4.18804V7.17015H5.12777C4.79522 7.17015 4.52532 7.44005 4.52532 7.7726C4.52532 8.10515 4.79522 8.37505 5.12777 8.37505H27.9002V20.33C27.3876 20.0065 26.8195 19.7631 26.2134 19.6173V10.6643C26.2134 10.3318 25.9435 10.0619 25.6109 10.0619H3.19994C2.86739 10.0619 2.59749 10.3318 2.59749 10.6643V24.8821C2.59749 25.2146 2.86739 25.4845 3.19994 25.4845H19.2371C19.2744 26.0761 19.4027 26.643 19.6088 27.1714H14.5741C14.2416 27.1714 13.9717 27.4413 13.9717 27.7738C13.9717 28.1064 14.2416 28.3763 14.5741 28.3763H20.2552C21.2812 29.8324 22.9752 30.7861 24.888 30.7861C28.0105 30.7861 30.551 28.2455 30.551 25.1231C30.551 23.6742 30.0034 22.3506 29.1051 21.3475ZM8.32073 4.15792C8.32073 4.48987 8.05024 4.76037 7.71829 4.76037C7.38634 4.76037 7.11584 4.48987 7.11584 4.15792V1.74814C7.11584 1.41619 7.38634 1.14569 7.71829 1.14569C8.05024 1.14569 8.32073 1.41619 8.32073 1.74814V4.15792ZM21.695 4.15792C21.695 4.48987 21.4245 4.76037 21.0926 4.76037C20.7607 4.76037 20.4902 4.48987 20.4902 4.15792V1.74814C20.4902 1.41619 20.7607 1.14569 21.0926 1.14569C21.4245 1.14569 21.695 1.41619 21.695 1.74814V4.15792ZM24.888 19.4601C24.6079 19.4601 24.3326 19.4811 24.0633 19.5203H21.7312V16.0261H25.0085V19.4613C24.9681 19.4607 24.9284 19.4601 24.888 19.4601ZM19.2877 24.2796H17.249V20.7252H20.5263V21.515C19.8841 22.2904 19.4437 23.2392 19.2877 24.2796ZM3.80239 16.0261H7.07969V19.5203H3.80239V16.0261ZM8.28459 16.0261H11.5619V19.5203H8.28459V16.0261ZM17.249 16.0261H20.5263V19.5203H17.249V16.0261ZM16.0441 19.5203H12.7668V16.0261H16.0441V19.5203ZM17.249 14.8212V11.2668H20.5263V14.8212H17.249ZM16.0441 14.8212H12.7668V11.2668H16.0441V14.8212ZM11.5619 14.8212H8.28459V11.2668H11.5619V14.8212ZM11.5619 20.7252V24.2796H8.28459V20.7252H11.5619ZM12.7668 20.7252H16.0441V24.2796H12.7668V20.7252ZM25.0085 14.8212H21.7312V11.2668H25.0085V14.8212ZM7.07969 11.2668V14.8212H3.80239V11.2668H7.07969ZM3.80239 20.7252H7.07969V24.2796H3.80239V20.7252ZM24.888 29.5812C22.43 29.5812 20.4299 27.581 20.4299 25.1231C20.4299 22.6651 22.43 20.665 24.888 20.665C27.346 20.665 29.3461 22.6651 29.3461 25.1231C29.3461 27.581 27.346 29.5812 24.888 29.5812Z" fill="#E26765"/>
<path d="M26.6309 23.6629L24.7675 25.5263L23.9385 24.6973C23.7036 24.4624 23.3222 24.4624 23.0867 24.6973C22.8517 24.9323 22.8517 25.3142 23.0867 25.5492L24.3416 26.8041C24.4548 26.9173 24.6079 26.9806 24.7675 26.9806C24.9272 26.9806 25.0808 26.9173 25.1934 26.8041L27.4827 24.5148C27.7177 24.2798 27.7177 23.8979 27.4827 23.6629C27.2478 23.428 26.8658 23.428 26.6309 23.6629Z" fill="#E26765"/>
<path d="M12.1643 27.1714C12.0059 27.1714 11.8505 27.2358 11.7384 27.3479C11.6264 27.46 11.5619 27.6154 11.5619 27.7738C11.5619 27.9323 11.6264 28.0877 11.7384 28.1998C11.8505 28.3118 12.0059 28.3763 12.1643 28.3763C12.3228 28.3763 12.4782 28.3118 12.5903 28.1998C12.7023 28.0877 12.7668 27.9323 12.7668 27.7738C12.7668 27.6154 12.7023 27.46 12.5903 27.3479C12.4782 27.2358 12.3228 27.1714 12.1643 27.1714Z" fill="#E26765"/>
<path d="M3.14392 8.19854C3.25597 8.08649 3.32043 7.93106 3.32043 7.77261C3.32043 7.61417 3.25597 7.45874 3.14392 7.34668C3.03186 7.23463 2.87643 7.17017 2.71799 7.17017C2.55894 7.17017 2.40411 7.23463 2.29206 7.34668C2.18 7.45874 2.11554 7.61417 2.11554 7.77261C2.11554 7.93106 2.18 8.08649 2.29206 8.19854C2.40411 8.3106 2.55894 8.37506 2.71799 8.37506C2.87643 8.37506 3.03186 8.3106 3.14392 8.19854Z" fill="#E26765"/>
</g>
<defs>
<clipPath id="clip0">
<rect width="31" height="31" fill="white"/>
</clipPath>
</defs>
</svg>
