<svg width="24" height="19" viewBox="0 0 24 19" fill="none" xmlns="http://www.w3.org/2000/svg">
<path d="M21 0H5C4.73478 0 4.48043 0.105357 4.29289 0.292893C4.10536 0.48043 4 0.734784 4 1V3.59C4 4.113 4.213 4.627 4.583 4.997L10 10.414V18C10.0002 18.1704 10.0439 18.3379 10.1269 18.4867C10.2099 18.6354 10.3295 18.7605 10.4744 18.8502C10.6193 18.9398 10.7847 18.9909 10.9549 18.9988C11.1251 19.0066 11.2945 18.9709 11.447 18.895L15.447 16.895C15.786 16.725 16 16.379 16 16V10.414L21.417 4.997C21.787 4.627 22 4.113 22 3.59V1C22 0.734784 21.8946 0.48043 21.7071 0.292893C21.5196 0.105357 21.2652 0 21 0ZM14.293 9.293C14.2 9.38571 14.1262 9.4959 14.0759 9.61724C14.0256 9.73857 13.9998 9.86866 14 10V15.382L12 16.382V10C12.0002 9.86866 11.9744 9.73857 11.9241 9.61724C11.8738 9.4959 11.8 9.38571 11.707 9.293L6 3.59V2H20.001L20.003 3.583L14.293 9.293Z" fill="black"/>
</svg>
