<svg width="27" height="26" viewBox="0 0 27 26" fill="none" xmlns="http://www.w3.org/2000/svg">
<path d="M26.9313 7.64431C26.8679 6.2629 26.6359 5.31295 26.3035 4.49022C25.9605 3.61659 25.4331 2.83456 24.7418 2.18431C24.0664 1.52387 23.2489 1.011 22.352 0.685871C21.4927 0.365832 20.5113 0.142466 19.0765 0.081409C17.6306 0.0152642 17.1719 0 13.5053 0C9.8387 0 9.37998 0.0152642 7.93987 0.0763209C6.50505 0.137378 5.51838 0.360744 4.66383 0.680783C3.7559 1.01049 2.94363 1.51879 2.26823 2.1838C1.58279 2.83405 1.05009 3.62168 0.71239 4.48513C0.379976 5.31295 0.147974 6.2573 0.0845567 7.63871C0.0158544 9.0308 0 9.47245 0 13.0025C0 16.5326 0.0158544 16.9743 0.0792719 18.3608C0.142689 19.7422 0.374692 20.6921 0.707105 21.5149C1.05009 22.3885 1.5828 23.1705 2.26876 23.8208C2.94416 24.4812 3.76171 24.9941 4.65854 25.3192C5.51838 25.6393 6.49976 25.8626 7.93459 25.9237C9.37469 25.9847 9.83394 26 13.5 26C17.1661 26 17.6253 25.9847 19.0654 25.9237C20.5002 25.8626 21.4869 25.6393 22.3415 25.3192C24.1563 24.6435 25.5911 23.2621 26.2929 21.5149C26.6253 20.687 26.8573 19.7422 26.9207 18.3608C26.9841 16.9743 27 16.5321 27 13.0025C27 9.47295 26.9947 9.0308 26.9313 7.64431ZM24.4998 18.2595C24.4416 19.5295 24.2202 20.2149 24.0352 20.6723C23.5813 21.8049 22.648 22.704 21.4711 23.141C20.9965 23.3186 20.2788 23.5323 18.965 23.5877C17.5408 23.6488 17.1132 23.6641 13.51 23.6641C9.90687 23.6641 9.47405 23.6488 8.05508 23.5877C6.736 23.5318 6.02413 23.3186 5.54903 23.141C4.96348 22.9329 4.43077 22.6027 3.99794 22.1707C3.54927 21.7489 3.20681 21.2411 2.99014 20.6774C2.8057 20.2205 2.58373 19.5295 2.52613 18.2646C2.46271 16.8934 2.44686 16.4818 2.44686 13.0127C2.44686 9.54368 2.46271 9.12697 2.52613 7.76082C2.58426 6.49084 2.8057 5.80548 2.99014 5.34806C3.20628 4.78431 3.54927 4.27143 4.00323 3.85472C4.44081 3.42274 4.96823 3.09303 5.55432 2.88493C6.02889 2.70736 6.74656 2.49366 8.06036 2.43769C9.48462 2.37663 9.91216 2.36137 13.5153 2.36137C17.1238 2.36137 17.5513 2.37663 18.9703 2.43769C20.2894 2.49366 21.0012 2.70685 21.4763 2.88493C22.0619 3.09303 22.5946 3.42325 23.0274 3.85472C23.4761 4.27652 23.8186 4.78431 24.0352 5.34806C24.2197 5.80497 24.4416 6.49593 24.4998 7.76082C24.5632 9.13205 24.579 9.54368 24.579 13.0127C24.579 16.4818 24.5627 16.8883 24.4998 18.2595Z" fill="white"/>
<path d="M13.5052 6.32349C9.67533 6.32349 6.56787 9.31476 6.56787 13.0026C6.56787 16.6904 9.67533 19.6817 13.5052 19.6817C17.3351 19.6817 20.4426 16.6904 20.4426 13.0026C20.4426 9.31476 17.3351 6.32349 13.5052 6.32349ZM13.5052 17.3351C11.0208 17.3351 9.00522 15.395 9.00522 13.0026C9.00522 10.6102 11.0208 8.6701 13.5052 8.6701C15.9901 8.6701 18.0052 10.6102 18.0052 13.0026C18.0052 15.395 15.9901 17.3351 13.5052 17.3351Z" fill="white"/>
<path d="M22.3367 6.05937C22.3367 6.92027 21.6117 7.61886 20.717 7.61886C19.8228 7.61886 19.0972 6.92078 19.0972 6.05937C19.0972 5.19796 19.8222 4.49988 20.717 4.49988C21.6117 4.50039 22.3367 5.19796 22.3367 6.05937Z" fill="white"/>
</svg>
