<?xml version="1.0" encoding="utf-8"?>
<!-- Generator: Adobe Illustrator 22.0.1, SVG Export Plug-In . SVG Version: 6.00 Build 0)  -->
<svg version="1.1" id="Layer_1" xmlns="http://www.w3.org/2000/svg" xmlns:xlink="http://www.w3.org/1999/xlink" x="0px" y="0px"
	 viewBox="0 0 375 812" style="enable-background:new 0 0 375 812;" xml:space="preserve">
<style type="text/css">
	.st0{fill:url(#SVGID_1_);}
	.st1{clip-path:url(#SVGID_3_);fill:#FFFFFF;fill-opacity:0.15;}
</style>
<linearGradient id="SVGID_1_" gradientUnits="userSpaceOnUse" x1="402.3355" y1="802.3114" x2="241.3355" y2="505.3114" gradientTransform="matrix(1 0 0 -1 0 812)">
	<stop  offset="0" style="stop-color:#A0D083;stop-opacity:0.5"/>
	<stop  offset="1" style="stop-color:#A0D083"/>
</linearGradient>
<rect class="st0" width="375" height="812"/>
<g>
	<defs>
		
			<rect id="SVGID_2_" x="-102.7" y="-111.2" transform="matrix(0.4027 -0.9153 0.9153 0.4027 12.1721 233.521)" width="575.5" height="437.3"/>
	</defs>
	<clipPath id="SVGID_3_">
		<use xlink:href="#SVGID_2_"  style="overflow:visible;"/>
	</clipPath>
	<path class="st1" d="M210.5,238.3c8.5,5.6,19.9,3.2,25.4-5.2c5.6-8.5,3.3-19.9-5.2-25.5c-8.5-5.6-19.9-3.2-25.4,5.2
		C199.7,221.3,202,232.7,210.5,238.3z M199.2,203.9c2.3-2.9,6.4-11.4,15-12.3c8.6-0.9,22.2,8.8,22.2,8.8
		c24.1,16.3,7.1,42.2-0.6,48.8c-7.6,6.6-14,7.5-32.8-4.9C184.4,232,197,206.8,199.2,203.9z"/>
	<path class="st1" d="M17.6,317c-0.6,0.7-1.3,0.7-2.1,0.2c-0.5-0.3-0.8-0.2-0.9,0.5c0,0.3-0.1,0.5-0.4,0.7c-0.6,0.7-1.4,0.7-2.3-0.1
		c-0.7-0.6-0.9-1.4-0.6-2.4c0.2-0.8,0.5-1.5,0.9-2c0.6-0.7,1.3-1,2.1-0.7c1.3,0.3,2.2,0.8,2.9,1.4c0.3,0.3,0.5,0.7,0.6,1.2
		C17.9,316.3,17.9,316.8,17.6,317z M29,300.8c-0.6,0.7-1.3,0.8-2,0.4c-0.5-0.3-1.2-1.2-2.3-2.7c-0.4-0.5-0.5-0.8-0.5-0.9
		c0-0.1,0.2-0.4,0.6-0.8c1.6-1.7,2.8-2.5,3.7-2.4c0.4,0.1,0.8,0.2,1,0.4c0.7,0.6,0.5,1.5-0.6,2.6c-0.5,0.6-0.8,0.8-0.7,0.7
		c-0.1,0.2,0.1,0.4,0.6,0.8C29.5,299.5,29.5,300.1,29,300.8z M-4.6,309.9c-0.7,0.7-1.4,0.8-2.1,0.1c-0.6-0.6-0.7-1.2-0.3-1.9
		c0.2-0.4,0.3-0.6,0.2-0.7c-0.1-0.1-0.3-0.2-0.8-0.4c-0.4-0.1-0.7-0.5-1-1c-0.2-0.5-0.1-1,0.4-1.6c0.9-1,2.4-0.7,4.3,1.1
		c0.5,0.5,0.7,1,0.4,1.6c-0.1,0.2-0.3,0.7-0.5,1.5C-4.2,309.3-4.4,309.8-4.6,309.9z M17.9,281.4c-0.3,0.6-1.2,1.1-2.6,1.5
		c-0.6,0.1-1,0.2-1.2,0.2c-0.2,0-0.4-0.3-0.8-0.6c-1.8-2.1-2.2-3.6-1.3-4.5c0.9-1,1.8-1.2,2.6-0.4c0.2,0.2,0.4,0.5,0.5,0.8
		c0.1,0.3,0.2,0.6,0.3,0.7c0.2,0.2,0.5,0.1,0.9-0.3c0.5-0.6,1-0.6,1.5-0.2C18.5,279.1,18.6,280.1,17.9,281.4z M-1.9,287.7
		c-2.3,0.6-3.9,0.5-4.7-0.2c-0.5-0.5-0.5-1.1,0.1-1.7c0.1-0.2,0.4-0.2,0.9-0.2c0.5,0,0.8-0.1,0.9-0.2c0.1-0.1,0.1-0.4,0-0.9
		c-0.1-0.5,0-0.9,0.4-1.3c0.3-0.3,0.7-0.4,1.2-0.4c0.5,0,1,0.3,1.3,0.6c0.7,0.6,1,1.7,0.8,3l-0.1,1.2
		C-1.2,287.5-1.5,287.6-1.9,287.7z M22.6,321.4c0.5-1.8,0.7-5,0.6-9.6c-0.1-2.3,0-3.6,0.2-3.9c0.1-0.2,1.1-0.7,2.9-1.6
		c2.1-1,4.9-2.6,8.6-4.6c1.2-0.7,2.1-1.4,2.9-2.3c2-2.2,2.1-4.2,0.1-5.9c-0.8-0.7-1.9-1.3-3.3-1.8c-1.2-0.4-3.6-1.1-7.2-2.1
		c-2.2-0.6-3.5-1.1-3.9-1.4c-0.4-0.4-0.6-1.7-0.6-4.1c0-3.2-0.4-6.2-1.1-9c-0.6-2.3-1.5-4-2.7-5.1c-2.3-2.1-5.1-1.5-8.4,2
		c-1.3,1.4-2.8,3.4-4.4,6.1c-0.8,1.3-1.3,2-1.5,2.3c-0.4,0.5-1,0.7-1.8,0.6c-0.3,0-1.5-0.3-3.5-0.9c-1.8-0.5-3.7-0.9-5.9-1.4
		c-3.2-0.6-5.3-0.4-6.4,0.8c-1.1,1.2-0.9,3.5,0.7,6.6c0.7,1.4,1.8,3.3,3.3,5.9c0.9,1.7,1.4,3.1,1.3,4c-0.1,0.7-0.8,1.9-1.9,3.6
		c-1,1.3-2.4,3.4-4.3,6.1c-2.2,3.4-2.5,6-0.7,7.6c1.2,1.1,3.3,1.7,6.3,1.9c3.9,0.2,7,0,9.3-0.7c0.8-0.3,1.4-0.4,1.7-0.3
		c0.4,0,0.9,0.3,1.4,1c3.1,3.6,5.9,6.5,8.3,8.8c3.4,3.2,6.1,3.7,8.1,1.5C21.4,324.6,22.1,323.3,22.6,321.4z"/>
	<path class="st1" d="M127.2,207.7c7.8,5.2,13.2,6.2,18.6-1.9c6.3-9.5,1.4-15.4-3.3-18.4c0,0-9-7.5-14.8,0.3
		C122,195.3,119.4,202.5,127.2,207.7z M122.8,181.3c7.7-10.3,24.7,0.7,24.7,0.7c11,6.6,14.9,14.9,3.4,28s-23.2,5.9-31.9,0.4
		C110.2,204.9,115.1,191.7,122.8,181.3z"/>
	<path class="st1" d="M133,199.6c2.7,1.8,4,1.2,5.4-0.9c1.4-2,0.9-4.1-1.3-5.2c0,0-2.4-2.6-4.4,0.1
		C130.6,196.3,130.3,197.8,133,199.6z M131.4,191.6c2.6-3.5,8.8-0.1,8.8-0.1c4,1.4,4.2,5.6,1.8,9.6c-2.4,4-6.5,4.6-11,1.2
		C126.5,199,128.9,195.1,131.4,191.6z"/>
	<path class="st1" d="M19.2,226.1c0,0-9.4-8.8-2.9-17.2c6.5-8.4,11.6-6.6,17.1-1.4c5.6,5.1,7.4,12.2,1.6,18.6
		C27.7,234.1,19.2,226.1,19.2,226.1z"/>
	<path class="st1" d="M83.4,286.1c0.1-0.5,0.4-0.9,0.8-1.3c0.4-0.3,0.9-0.4,1.5-0.3c0.5,0.1,1,0.3,1.3,0.8c0.3,0.4,0.5,0.9,0.4,1.4
		c-0.1,0.5-0.3,0.9-0.8,1.2c-0.4,0.3-0.9,0.4-1.5,0.3s-1-0.3-1.3-0.8C83.5,287.1,83.4,286.6,83.4,286.1z M91.4,281.8
		c0.1-0.6,0.4-1.1,1-1.4c0.5-0.3,1.2-0.5,1.8-0.4c0.7,0.1,1.2,0.4,1.6,0.9c0.4,0.5,0.6,1,0.5,1.6c-0.1,0.6-0.4,1.1-1,1.4
		c-0.5,0.3-1.2,0.5-1.8,0.4c-0.7-0.1-1.2-0.4-1.6-0.9C91.5,282.9,91.3,282.4,91.4,281.8z M102.9,268.6c0.1-0.7,0.4-1.2,1-1.6
		c0.5-0.4,1.2-0.6,1.8-0.5c0.7,0.1,1.3,0.4,1.7,1c0.4,0.5,0.6,1.2,0.4,1.8c-0.1,0.7-0.4,1.2-1,1.6c-0.5,0.4-1.2,0.5-1.9,0.5
		c-0.7-0.1-1.2-0.4-1.6-1C102.9,269.9,102.8,269.3,102.9,268.6z M101.5,279.4c0-0.1,0.3-0.3,0.9-0.5c0.3-0.1,0.9-0.2,1.7-0.5
		c0.8-0.2,1.2-0.6,1.5-1.3c0.1-0.1,0.2-0.4,0.3-0.7c0.1-0.3,0.3-0.5,0.4-0.5c0.2,0,0.3,0.2,0.3,0.4c0,0.3,0.1,0.6,0.2,1
		c0.1,0.4,0.5,0.7,1.2,0.9c0.2,0,0.4,0.1,0.7,0.1c0.7,0.2,0.9,0.6,0.5,1.1c-0.1,0.2-0.3,0.4-0.5,0.7c-0.4,0.4-0.5,1-0.5,1.6
		c0,0.2,0.1,0.7,0.2,1.3c0.1,0.6,0.1,0.9,0.1,0.9c0,0.1-0.1,0.2-0.2,0.1c-0.1,0-0.7-0.4-1.7-1.1c-0.5-0.4-1-0.4-1.4-0.1
		c-0.2,0.2-0.5,0.4-0.9,0.7c-0.2,0.2-0.4,0.3-0.5,0.3c-0.1,0-0.2-0.7-0.2-1.9c0-0.6-0.2-1-0.6-1.4c-0.3-0.2-0.6-0.4-0.9-0.6
		C101.7,279.7,101.5,279.6,101.5,279.4z M109.3,251.6c0.1-0.7,0.4-1.2,0.9-1.6c0.5-0.4,1-0.6,1.6-0.5c0.6,0.1,1.1,0.4,1.4,1
		c0.3,0.5,0.5,1.2,0.4,1.8c-0.1,0.7-0.4,1.3-0.9,1.7c-0.5,0.4-1,0.6-1.6,0.5c-0.6-0.1-1.1-0.4-1.4-1
		C109.4,252.9,109.2,252.3,109.3,251.6z M111.5,264.2c0.1-0.4,0.3-0.8,0.7-1c0.4-0.3,0.8-0.4,1.2-0.3c0.7,0.1,1.1,0.4,1.4,1
		c0.2,0.4,0.4,0.6,0.6,0.6c0.1,0,0.4,0,0.9-0.1c0.2,0,0.4,0,0.7,0c1,0.1,1.4,0.8,1.3,2c-0.1,0.9-0.6,1.5-1.3,1.8
		c-0.4,0.2-1.2,0.3-2.3,0.4c-0.6,0.1-0.9,0.1-0.9,0.1c-0.1,0-0.3-0.3-0.7-0.7C111.8,266.6,111.3,265.4,111.5,264.2z M114.6,277
		c0.3-1.9,1.4-2.8,3.4-2.5c-0.7,2.3-1.6,3.9-2.6,4.9C114.7,279,114.4,278.2,114.6,277z M78.9,288.9c2.6,0.9,5.4,1.5,8.3,2
		c5.7,0.9,10.4,0.7,14.2-0.4c8.1-2.5,13.8-6.8,16.8-13.1c1.3-2.7,2.2-5.3,2.5-7.6c0.2-1.2,0.3-3.1,0.3-5.6c0-7.3-3.4-14-10.5-20
		c-1.2-1-2.2-1.6-3.2-1.7c-1.1-0.2-1.8,0.3-2,1.6c-0.1,0.6,0,1.3,0.1,2.1c0.5,2.9,0.3,6.5-0.3,10.9c-0.5,3.1-1.7,6.3-3.6,9.8
		c-2.2,4-4.8,7.2-8,9.7c-5.2,4.1-9.5,6.3-12.8,6.5c-3.5,0.2-5.4,1.1-5.6,2.6C75.1,286.9,76.3,288,78.9,288.9z"/>
	<path class="st1" d="M357.8-1.7c6.4,9.3,19.1,11.6,28.4,5.2c9.3-6.4,11.6-19.1,5.2-28.4c-6.4-9.3-19.1-11.6-28.4-5.2
		C353.7-23.7,351.4-11,357.8-1.7z M360.5-41.8c3.5-2,11.4-9.1,20.6-6.4s19.2,18.3,19.2,18.3c18.1,26.8-10.3,46.4-20.9,50
		c-10.6,3.6-17.6,1.9-31.7-18.7C333.5-19.1,357-39.8,360.5-41.8z"/>
	<path class="st1" d="M159.7,88.3c-8.8-5.1-20-2.1-25.1,6.6c-5.1,8.8-2.2,20,6.6,25.1c8.8,5.1,20,2.1,25.1-6.6
		C171.4,104.6,168.4,93.4,159.7,88.3z M172.8,122c-2.1,3-5.8,11.7-14.3,13.1c-8.5,1.4-22.6-7.6-22.6-7.6c-25-15-9.4-41.7-2.1-48.7
		c7.3-7,13.6-8.3,33,3.1C186.1,93.1,174.9,119,172.8,122z"/>
	<path class="st1" d="M286.2,122.6c7.6-19,7.5-30.9-12.3-38.8c-23-9.2-33.5,3.9-37.9,15.1c0,0-12.1,22.5,7,31.4
		C262.1,139.2,278.5,141.6,286.2,122.6z M232,143.6c-25.3-11.9-9.2-52.9-9.2-52.9c9.3-26.3,25.1-38.2,58.1-19.5
		c33,18.7,22.7,46.9,14.7,67.9C287.6,160.1,257.3,155.5,232,143.6z"/>
	<path class="st1" d="M266.4,113.8c2.6-6.6,0.7-9-4.2-11c-5-2-9.1-0.2-10.4,5.1c0,0-4.4,6.3,2.1,9.3
		C260.4,120.3,263.8,120.4,266.4,113.8z M250.1,120.8c-8.6-3.9-3.9-18.7-3.9-18.7c1.2-9.3,10.1-11.5,19.8-8.1
		c9.6,3.4,12.6,11.8,7.3,22.9C267.9,128,258.6,124.7,250.1,120.8z"/>
	<path class="st1" d="M303.4,36.5c0,0-6.2,10.3-15.2,5.9c-8.9-4.4-8.2-9.3-4.5-15.4c3.7-6.1,9.8-9.1,16.7-4.9
		C309.2,27.2,303.4,36.5,303.4,36.5z"/>
	<path class="st1" d="M377.7,64c0,0.5-0.3,1-0.7,1.3c-0.4,0.3-0.9,0.5-1.4,0.4c-0.5,0-1-0.3-1.3-0.7c-0.4-0.4-0.5-0.9-0.4-1.4
		c0-0.5,0.3-0.9,0.7-1.2c0.4-0.3,0.9-0.5,1.4-0.4c0.5,0,1,0.3,1.3,0.7C377.6,63.1,377.8,63.5,377.7,64z M370,68.8
		c-0.1,0.6-0.4,1.1-0.9,1.5c-0.5,0.4-1.1,0.5-1.8,0.5c-0.7-0.1-1.2-0.3-1.7-0.8c-0.4-0.5-0.6-1-0.6-1.6c0.1-0.6,0.4-1.1,0.9-1.5
		c0.5-0.4,1.1-0.5,1.8-0.5c0.7,0.1,1.2,0.3,1.7,0.8C369.9,67.7,370.1,68.2,370,68.8z M359.3,82.6c-0.1,0.7-0.4,1.2-0.9,1.7
		c-0.5,0.4-1.1,0.6-1.8,0.6c-0.7-0.1-1.3-0.4-1.7-0.9c-0.4-0.5-0.6-1.1-0.6-1.8c0.1-0.7,0.4-1.2,0.9-1.7c0.5-0.4,1.2-0.6,1.9-0.6
		c0.7,0.1,1.2,0.4,1.7,0.9C359.2,81.3,359.3,81.9,359.3,82.6z M360.1,71.7c0,0.2-0.3,0.3-0.9,0.5c-0.3,0.1-0.9,0.3-1.6,0.5
		c-0.8,0.3-1.2,0.7-1.4,1.3c-0.1,0.1-0.1,0.4-0.3,0.7c-0.1,0.3-0.3,0.5-0.4,0.5c-0.2,0-0.3-0.2-0.4-0.4c-0.1-0.3-0.1-0.6-0.3-1
		c-0.1-0.4-0.5-0.7-1.3-0.8c-0.2,0-0.4,0-0.7-0.1c-0.7-0.2-0.9-0.5-0.6-1c0.1-0.2,0.3-0.4,0.5-0.7c0.4-0.5,0.5-1,0.4-1.6
		c-0.1-0.2-0.1-0.6-0.3-1.3c-0.1-0.6-0.2-0.9-0.2-0.9c0-0.1,0.1-0.2,0.2-0.1c0.2,0,0.7,0.3,1.7,1c0.5,0.3,1,0.3,1.5,0
		c0.2-0.2,0.5-0.5,0.8-0.8c0.2-0.2,0.4-0.3,0.5-0.3c0.1,0,0.2,0.6,0.3,1.9c0,0.6,0.3,1,0.7,1.4c0.3,0.2,0.6,0.4,0.9,0.6
		C359.9,71.4,360.1,71.6,360.1,71.7z M353.8,100c-0.1,0.7-0.3,1.2-0.8,1.7c-0.5,0.4-1,0.6-1.6,0.6c-0.6-0.1-1.1-0.4-1.5-0.9
		c-0.4-0.5-0.5-1.1-0.5-1.8c0.1-0.7,0.4-1.3,0.8-1.7c0.5-0.4,1-0.6,1.6-0.6c0.6,0.1,1.1,0.4,1.5,0.9
		C353.7,98.6,353.8,99.2,353.8,100z M351,87.5c0,0.4-0.3,0.8-0.6,1.1c-0.4,0.3-0.8,0.4-1.2,0.4c-0.7-0.1-1.2-0.4-1.4-0.9
		c-0.3-0.4-0.5-0.6-0.7-0.6c-0.1,0-0.4,0-0.9,0.2c-0.2,0.1-0.5,0.1-0.7,0c-1-0.1-1.5-0.7-1.4-1.9c0.1-0.9,0.5-1.5,1.2-1.8
		c0.4-0.2,1.2-0.4,2.3-0.5c0.6-0.1,0.9-0.1,0.9-0.1c0.1,0,0.4,0.2,0.7,0.6C350.5,85.1,351.1,86.3,351,87.5z M347.1,74.9
		c-0.2,2-1.3,2.8-3.3,2.7c0.6-2.3,1.3-4,2.3-5C346.9,72.8,347.2,73.6,347.1,74.9z M382.1,61c-2.7-0.7-5.5-1.2-8.4-1.5
		c-5.7-0.6-10.5-0.2-14.2,1.2c-8,2.9-13.4,7.6-16.1,14c-1.2,2.8-1.9,5.4-2.1,7.7c-0.1,1.3-0.1,3.1,0,5.6c0.4,7.3,4.2,13.8,11.5,19.4
		c1.2,0.9,2.3,1.5,3.2,1.5c1.1,0.1,1.8-0.4,1.9-1.6c0.1-0.6,0-1.3-0.2-2.1c-0.6-2.9-0.7-6.5-0.3-10.9c0.3-3.1,1.3-6.4,3-9.9
		c2-4.1,4.4-7.4,7.5-10.1c5-4.4,9.1-6.8,12.4-7.2c3.5-0.4,5.3-1.3,5.5-2.9C386.1,62.8,384.8,61.8,382.1,61z"/>
	<path class="st1" d="M73.4,131.3c0.3-0.4,0.7-0.4,1.1-0.1c0.3,0.2,0.4,0.1,0.5-0.3c0-0.2,0.1-0.3,0.1-0.4c0.3-0.4,0.7-0.4,1.2,0
		c0.4,0.3,0.5,0.7,0.4,1.3c-0.1,0.4-0.2,0.8-0.4,1.1c-0.3,0.4-0.7,0.5-1.1,0.5c-0.7-0.1-1.2-0.4-1.6-0.7c-0.2-0.1-0.3-0.3-0.4-0.6
		C73.2,131.7,73.3,131.4,73.4,131.3z M67.8,140.3c0.3-0.4,0.7-0.5,1.1-0.2c0.3,0.1,0.7,0.6,1.3,1.4c0.2,0.3,0.3,0.4,0.3,0.5
		c0,0.1-0.1,0.2-0.3,0.5c-0.8,0.9-1.4,1.4-1.9,1.4c-0.2,0-0.4-0.1-0.5-0.2c-0.4-0.3-0.3-0.8,0.3-1.4c0.3-0.3,0.4-0.5,0.3-0.4
		c0-0.1-0.1-0.2-0.3-0.4C67.6,140.9,67.6,140.6,67.8,140.3z M85.4,134.4c0.3-0.4,0.7-0.4,1.1-0.1c0.3,0.3,0.4,0.6,0.2,1
		c-0.1,0.2-0.1,0.3-0.1,0.4c0,0,0.2,0.1,0.4,0.2c0.2,0.1,0.4,0.2,0.5,0.5c0.1,0.3,0.1,0.6-0.2,0.9c-0.5,0.6-1.2,0.4-2.3-0.4
		c-0.3-0.2-0.4-0.5-0.3-0.8c0-0.1,0.1-0.4,0.2-0.8C85.2,134.7,85.3,134.5,85.4,134.4z M74.3,150.2c0.1-0.3,0.6-0.6,1.3-0.8
		c0.3-0.1,0.5-0.1,0.6-0.1c0.1,0,0.3,0.1,0.4,0.3c1,1,1.2,1.8,0.8,2.4c-0.5,0.6-0.9,0.7-1.3,0.3c-0.1-0.1-0.2-0.3-0.3-0.4
		c-0.1-0.2-0.1-0.3-0.2-0.3c-0.1-0.1-0.3-0.1-0.5,0.2c-0.2,0.3-0.5,0.4-0.8,0.2C74,151.4,74,150.9,74.3,150.2z M84.6,146.3
		c1.2-0.4,2-0.4,2.5,0c0.3,0.2,0.3,0.5,0,0.9c-0.1,0.1-0.2,0.1-0.5,0.2c-0.2,0-0.4,0.1-0.5,0.2c-0.1,0.1,0,0.2,0,0.4
		c0.1,0.2,0,0.5-0.2,0.7c-0.1,0.2-0.4,0.3-0.7,0.2c-0.3,0-0.5-0.1-0.7-0.3c-0.4-0.3-0.6-0.8-0.5-1.6l0.1-0.6
		C84.2,146.4,84.4,146.3,84.6,146.3z M70.6,129.1c-0.2,1-0.2,2.7,0,5.1c0.1,1.2,0.1,1.9,0,2.1c-0.1,0.1-0.6,0.4-1.5,1
		c-1.1,0.6-2.5,1.5-4.4,2.7c-0.6,0.4-1.1,0.8-1.5,1.3c-1,1.2-1,2.3,0.1,3.2c0.5,0.4,1,0.6,1.8,0.9c0.7,0.2,1.9,0.5,3.9,0.9
		c1.2,0.2,1.9,0.5,2.1,0.6c0.2,0.2,0.4,0.9,0.5,2.1c0.1,1.7,0.4,3.3,0.8,4.7c0.4,1.2,0.9,2.1,1.6,2.6c1.3,1.1,2.7,0.6,4.4-1.3
		c0.7-0.8,1.4-1.9,2.2-3.4c0.4-0.7,0.6-1.1,0.7-1.2c0.2-0.3,0.5-0.4,0.9-0.4c0.2,0,0.8,0.1,1.9,0.4c0.9,0.2,2,0.4,3.1,0.6
		c1.7,0.2,2.8,0,3.4-0.6c0.6-0.7,0.4-1.8-0.6-3.5c-0.4-0.7-1-1.7-1.9-3.1c-0.6-0.9-0.8-1.6-0.8-2.1c0-0.4,0.4-1,0.9-1.9
		c0.5-0.7,1.2-1.8,2.1-3.4c1.1-1.9,1.1-3.2,0.1-4.1c-0.7-0.5-1.8-0.8-3.4-0.8c-2.1,0-3.7,0.2-4.9,0.7c-0.4,0.2-0.7,0.2-0.9,0.2
		c-0.2,0-0.5-0.2-0.8-0.5c-1.8-1.8-3.3-3.3-4.6-4.4c-1.9-1.6-3.3-1.8-4.3-0.6C71.2,127.4,70.9,128.1,70.6,129.1z"/>
</g>
</svg>
