<svg width="37" height="28" viewBox="0 0 37 28" fill="none" xmlns="http://www.w3.org/2000/svg">
<g clip-path="url(#clip0)">
<path d="M23.537 1.39226C22.1763 -0.552884 18.6678 -0.44639 15.7157 1.62844C13.813 2.96649 12.5649 4.88484 12.4356 6.62135L1.00678 14.6577C0.524049 14.9974 0.186568 15.4901 0.0572129 16.0464C-0.0786465 16.6318 0.0290293 17.2143 0.360729 17.688C0.692428 18.1618 1.20262 18.4618 1.79737 18.5328C1.88626 18.5436 1.97514 18.5487 2.06403 18.5487C2.54098 18.5487 3.01577 18.3973 3.42262 18.1111L14.8522 10.0748C16.5244 10.5442 18.7494 10.0212 20.6522 8.68313C21.9971 7.73772 23.055 6.49312 23.6303 5.17824C24.2647 3.72934 24.2315 2.38476 23.537 1.39226ZM22.3071 4.59578C21.8431 5.65565 20.9369 6.71263 19.8219 7.49721C18.1829 8.64981 16.2454 9.09245 15.001 8.59837C14.7748 8.50854 14.519 8.53897 14.3203 8.67878L2.59301 16.9252C2.40151 17.0599 2.17965 17.1201 1.96864 17.0947C1.86385 17.0824 1.66874 17.0346 1.54372 16.8564C1.41942 16.6782 1.4411 16.4782 1.46495 16.3753C1.51337 16.1674 1.64489 15.9791 1.83639 15.8443L13.5637 7.59863C13.7624 7.45881 13.878 7.22771 13.8708 6.9843C13.8318 5.64334 14.9064 3.96768 16.5453 2.81581C17.6604 2.03195 18.9605 1.53788 20.1124 1.46181C20.2164 1.45457 20.3183 1.45167 20.4173 1.45167C21.3084 1.45167 22.0043 1.72696 22.3533 2.22538C22.7414 2.77814 22.7248 3.64241 22.3071 4.59578Z" fill="black"/>
<path d="M36.2773 26.5511H33.1085C34.0776 25.6723 34.7113 24.4799 34.8949 23.1802L35.0763 21.8951C35.1247 21.5495 35.0221 21.201 34.7937 20.9381C34.6911 20.82 34.5668 20.7258 34.4309 20.6563C34.7446 20.0593 34.8913 19.3769 34.8371 18.6814C34.7005 16.9232 33.2754 15.4953 31.5223 15.3591C30.2251 15.2576 28.9922 15.8691 28.271 16.9021C27.7189 16.5834 27.1068 16.3798 26.4723 16.3045C26.4781 16.2016 26.4788 16.0973 26.4738 15.9922C26.4044 14.5136 25.1961 13.2864 23.7233 13.1988C22.5729 13.1292 21.5286 13.7305 20.9924 14.6824C20.4201 14.4079 19.7885 14.2615 19.1482 14.2615C17.6017 14.2615 16.2171 15.0744 15.4605 16.3798C14.9243 15.9118 14.2139 15.6706 13.4855 15.7314C12.3653 15.8249 11.4403 16.624 11.1477 17.678C10.7466 17.5404 10.3202 17.4824 9.89024 17.5092C8.41674 17.6005 7.15715 18.7256 6.89555 20.1839C6.87315 20.3071 6.85941 20.4309 6.85147 20.5541C6.60287 20.6106 6.37596 20.7461 6.20686 20.9439C5.9785 21.2112 5.87877 21.564 5.93225 21.911L6.14109 23.2563C6.33838 24.5263 6.96709 25.6897 7.91594 26.5504H4.57221C4.1733 26.5504 3.84955 26.8749 3.84955 27.2748C3.84955 27.6747 4.1733 27.9993 4.57221 27.9993H11.6644H29.3593H36.2773C36.6762 27.9993 37 27.6747 37 27.2748C37 26.8749 36.6762 26.5511 36.2773 26.5511ZM8.31774 20.4396C8.46299 19.6297 9.1618 19.0045 9.97912 18.9545C10.3318 18.9328 10.6772 19.0117 10.98 19.1834C11.2929 19.3609 11.6658 19.3624 11.978 19.1878C12.2887 19.0139 12.4824 18.6966 12.4969 18.3395L12.4976 18.3184C12.5308 17.7258 13.0165 17.2231 13.6047 17.1738C14.0549 17.1354 14.4719 17.3375 14.7219 17.7114C14.7667 17.7787 14.8195 17.8396 14.8773 17.8932C14.8 18.2634 14.745 18.7133 14.745 19.245C14.745 19.6449 15.0688 19.9695 15.4677 19.9695C15.8666 19.9695 16.1904 19.6449 16.1904 19.245C16.1904 18.4633 16.3385 17.9359 16.4491 17.652C16.4729 17.6099 16.4939 17.565 16.5119 17.5187C16.5228 17.4911 16.5336 17.4636 16.5452 17.4368C16.5575 17.4136 16.5654 17.4013 16.5654 17.3998L16.5582 17.41L16.556 17.4085C17.0062 16.3718 18.0107 15.7082 19.1468 15.7082C19.7957 15.7082 20.4063 15.9234 20.9122 16.3298C20.9375 16.3501 20.9635 16.3682 20.991 16.3849C21.1789 16.5457 21.5619 16.9384 21.6435 17.3223C21.7165 17.6621 22.0157 17.8954 22.3496 17.8954C22.3994 17.8954 22.4507 17.8903 22.5013 17.8794C22.8916 17.7954 23.1402 17.4107 23.0563 17.0195C22.9176 16.3711 22.5006 15.8444 22.1855 15.5228C22.4319 14.9679 23.0007 14.6049 23.6352 14.6433C24.381 14.6882 24.993 15.3098 25.0277 16.0589C25.0386 16.2893 24.9981 16.5131 24.9078 16.7225C24.8066 16.9565 24.8355 17.2267 24.9844 17.4339C25.1332 17.6411 25.3804 17.7548 25.6326 17.7324C25.7367 17.7237 25.8299 17.7193 25.918 17.7193C26.7 17.7193 27.4566 18.0011 28.0492 18.5133C28.1446 18.5981 28.4047 18.8828 28.4755 19.1929C28.5514 19.529 28.8499 19.7572 29.1794 19.7572C29.2322 19.7572 29.2864 19.7514 29.3406 19.7391C29.7301 19.65 29.9736 19.2624 29.8847 18.8719C29.7886 18.4467 29.5776 18.0939 29.3839 17.8403C29.8031 17.1535 30.5835 16.7391 31.4088 16.8022C32.4595 16.8833 33.313 17.7389 33.3947 18.7922C33.4452 19.4435 33.2053 20.0745 32.7464 20.523H8.30473C8.30834 20.4954 8.31268 20.4679 8.31774 20.4396ZM29.3601 26.5511H11.6651C9.60768 26.5511 7.88559 25.0718 7.56906 23.0346L7.4043 21.9726H7.61315H33.0182H33.6057L33.464 22.9774C33.4373 23.1686 33.3968 23.3556 33.3448 23.5374H26.6226C26.2237 23.5374 25.9 23.8619 25.9 24.2618C25.9 24.6617 26.2237 24.9863 26.6226 24.9863H32.594C31.8265 25.9433 30.65 26.5511 29.3601 26.5511Z" fill="black"/>
<path d="M21.4123 2.59423C21.4036 2.54787 21.3892 2.50223 21.3711 2.45804C21.353 2.41457 21.3306 2.37255 21.3046 2.33343C21.2786 2.29359 21.2483 2.25664 21.215 2.22332C21.1818 2.18999 21.1449 2.15956 21.1052 2.13348C21.0662 2.10668 21.0242 2.08495 20.9802 2.06683C20.9368 2.04872 20.8913 2.03423 20.845 2.02554C20.7518 2.0067 20.6564 2.0067 20.5632 2.02554C20.5169 2.03423 20.4714 2.04872 20.428 2.06683C20.384 2.08495 20.3421 2.10668 20.303 2.13348C20.2633 2.15956 20.2264 2.18999 20.1932 2.22332C20.1599 2.25664 20.1296 2.29359 20.1036 2.33343C20.0768 2.37255 20.0552 2.41457 20.0371 2.45804C20.019 2.50223 20.0046 2.54787 19.9959 2.59423C19.9865 2.6406 19.9814 2.68841 19.9814 2.7355C19.9814 2.78259 19.9865 2.8304 19.9959 2.87677C20.0046 2.92313 20.019 2.96877 20.0371 3.01224C20.0552 3.05643 20.0768 3.09845 20.1036 3.13757C20.1296 3.17742 20.1599 3.21436 20.1932 3.24769C20.2264 3.28101 20.2633 3.31144 20.303 3.33752C20.3421 3.3636 20.384 3.38606 20.428 3.40417C20.4714 3.42228 20.5169 3.43677 20.5632 3.44546C20.6094 3.45488 20.6571 3.45995 20.7041 3.45995C20.7511 3.45995 20.7988 3.45488 20.845 3.44546C20.8913 3.43677 20.9368 3.42228 20.9802 3.40417C21.0242 3.38606 21.0662 3.3636 21.1052 3.33752C21.1449 3.31144 21.1818 3.28101 21.215 3.24769C21.2483 3.21436 21.2786 3.17742 21.3046 3.13757C21.3306 3.09845 21.353 3.05643 21.3711 3.01224C21.3892 2.96877 21.4036 2.92313 21.4123 2.87677C21.4217 2.8304 21.4268 2.78259 21.4268 2.7355C21.4268 2.68841 21.4217 2.6406 21.4123 2.59423Z" fill="black"/>
<path d="M19.0225 3.05797C18.8721 2.68777 18.4508 2.50956 18.0808 2.66024C16.2547 3.40498 15.175 4.94299 15.1295 5.00819C14.9019 5.33709 14.9835 5.78842 15.3109 6.01663C15.4366 6.10428 15.5804 6.1463 15.7221 6.1463C15.9512 6.1463 16.1759 6.03763 16.3161 5.83479C16.3248 5.82247 17.192 4.58728 18.625 4.00265C18.9957 3.85124 19.1735 3.42816 19.0225 3.05797Z" fill="black"/>
<path d="M24.4402 24.1198C24.4308 24.0734 24.4171 24.0278 24.399 23.9843C24.3809 23.9401 24.3585 23.8981 24.3325 23.859C24.3065 23.8192 24.2762 23.7822 24.2429 23.7489C24.2097 23.7156 24.1721 23.6851 24.1331 23.6591C24.0933 23.633 24.0514 23.6105 24.008 23.5924C23.9647 23.5743 23.9192 23.5605 23.8729 23.5511C23.7797 23.5323 23.6836 23.5323 23.5904 23.5511C23.5448 23.5605 23.4993 23.5743 23.4552 23.5924C23.4119 23.6105 23.3699 23.633 23.3309 23.6591C23.2912 23.6851 23.2543 23.7156 23.2204 23.7489C23.1871 23.7822 23.1568 23.8192 23.1307 23.859C23.1047 23.8981 23.0823 23.9401 23.0643 23.9843C23.0462 24.0278 23.0325 24.0734 23.0231 24.1198C23.0137 24.1662 23.0093 24.214 23.0093 24.2611C23.0093 24.3082 23.0137 24.356 23.0231 24.4031C23.0325 24.4487 23.0462 24.4943 23.0643 24.5385C23.0823 24.582 23.1047 24.624 23.1307 24.6631C23.1575 24.703 23.1871 24.7399 23.2204 24.7733C23.2543 24.8066 23.2912 24.837 23.3309 24.8638C23.3699 24.8899 23.4119 24.9123 23.4552 24.9305C23.4993 24.9486 23.5448 24.9623 23.5904 24.9718C23.6373 24.9812 23.685 24.9855 23.732 24.9855C23.779 24.9855 23.8267 24.9812 23.8729 24.9718C23.9192 24.9623 23.9647 24.9486 24.008 24.9305C24.0514 24.9123 24.0933 24.8899 24.1331 24.8638C24.1721 24.837 24.2097 24.8066 24.2429 24.7733C24.2762 24.7399 24.3065 24.703 24.3325 24.6631C24.3585 24.624 24.3809 24.582 24.399 24.5385C24.4171 24.4943 24.4308 24.4487 24.4402 24.4031C24.4496 24.356 24.4547 24.3082 24.4547 24.2611C24.4547 24.214 24.4496 24.1662 24.4402 24.1198Z" fill="black"/>
</g>
<defs>
<clipPath id="clip0">
<rect width="37" height="28" fill="white"/>
</clipPath>
</defs>
</svg>
