<svg width="37" height="39" viewBox="0 0 37 39" fill="none" xmlns="http://www.w3.org/2000/svg">
<path fill-rule="evenodd" clip-rule="evenodd" d="M35.6922 33.7929C35.3273 33.5941 34.8716 33.7335 34.6757 34.1044C33.3363 36.6394 30.7372 37.9808 28.4947 37.293C28.3529 37.2496 28.202 37.2496 28.0601 37.293C25.4617 38.089 22.5518 36.2426 21.4339 33.0875C20.2868 29.851 21.4857 26.44 24.1066 25.4841C25.3146 25.0438 26.6667 25.1862 27.9137 25.887C28.0443 25.9601 28.2027 25.9959 28.3514 25.9792C28.4512 25.9678 28.5526 25.9365 28.6404 25.887C29.8881 25.187 31.2395 25.0438 32.4474 25.4841C33.7958 25.9761 34.8341 27.1629 35.295 28.7389C35.4129 29.1418 35.8311 29.3719 36.2282 29.2523C36.6254 29.1327 36.8521 28.7084 36.7342 28.3055C36.1351 26.2587 34.7583 24.7079 32.955 24.0505C31.6321 23.5676 30.1967 23.5988 28.8266 24.1244L28.5931 22.9346C28.8731 22.9864 29.1637 23.0138 29.4595 23.0138C30.3093 23.0138 31.1577 22.8028 31.979 22.3854C33.8836 21.418 34.515 19.9441 34.8814 18.6286C34.9842 18.2592 34.8003 17.8699 34.4512 17.7199C33.6749 17.3862 32.9002 17.2179 32.1471 17.2179C31.3213 17.2179 30.506 17.419 29.7245 17.8158C28.961 18.2036 28.3431 18.7276 27.8776 19.2966L27.7162 18.4732C27.6351 18.0611 27.2402 17.793 26.8333 17.8753C26.4264 17.9575 26.1629 18.3582 26.244 18.771L27.265 23.969C26.3056 23.6811 25.3236 23.6331 24.3799 23.8296V0.761719C24.3799 0.34125 24.0435 0 23.6291 0H0.750751C0.336336 0 0 0.34125 0 0.761719V34.3596C0 34.7801 0.336336 35.1213 0.750751 35.1213H20.7215C22.1059 37.52 24.4482 39 26.8318 39C27.3153 39 27.7996 38.9391 28.2785 38.8126C29.6697 39.1775 31.1839 38.9947 32.5683 38.2901C33.9797 37.5718 35.1974 36.3408 35.9992 34.8235C36.1952 34.4525 36.0578 33.9917 35.6922 33.7929ZM30.3986 19.1778C30.97 18.8876 31.5586 18.7406 32.1494 18.7406C32.5015 18.7406 32.8551 18.7901 33.2177 18.8914C32.8784 19.778 32.3559 20.491 31.3078 21.0227C30.6967 21.3327 30.0751 21.4904 29.4602 21.4904C29.0968 21.4904 28.7417 21.4302 28.4354 21.3213C28.6584 20.6517 29.3018 19.7346 30.3986 19.1778ZM1.5015 1.52344H22.8806V24.372C19.982 25.9182 18.7012 29.8678 20.0203 33.5979H1.5015V1.52344Z" fill="white"/>
<path fill-rule="evenodd" clip-rule="evenodd" d="M9.90315 13.9509H4.28829C3.87387 13.9509 3.53754 14.2921 3.53754 14.7126V20.4087C3.53754 20.8292 3.87387 21.1704 4.28829 21.1704H9.9024C10.3168 21.1704 10.6531 20.8292 10.6531 20.4087V14.7126C10.6539 14.2921 10.3176 13.9509 9.90315 13.9509ZM9.1524 19.647H5.03904V15.4743H9.15165V19.647H9.1524Z" fill="white"/>
<path fill-rule="evenodd" clip-rule="evenodd" d="M9.90315 4.66553H4.28829C3.87387 4.66553 3.53754 5.00678 3.53754 5.42725V11.1234C3.53754 11.5438 3.87387 11.8851 4.28829 11.8851H9.9024C10.3168 11.8851 10.6531 11.5438 10.6531 11.1234V5.42648C10.6539 5.00602 10.3176 4.66553 9.90315 4.66553ZM9.1524 10.3609H5.03904V6.1882H9.15165V10.3609H9.1524Z" fill="white"/>
<path fill-rule="evenodd" clip-rule="evenodd" d="M9.90315 23.237H4.28829C3.87387 23.237 3.53754 23.5782 3.53754 23.9987V29.6949C3.53754 30.1153 3.87387 30.4566 4.28829 30.4566H9.9024C10.3168 30.4566 10.6531 30.1153 10.6531 29.6949V23.9987C10.6539 23.5782 10.3176 23.237 9.90315 23.237ZM9.1524 28.9331H5.03904V24.7604H9.15165V28.9331H9.1524Z" fill="white"/>
<path fill-rule="evenodd" clip-rule="evenodd" d="M13.4557 10.6984H20.0781C20.4925 10.6984 20.8288 10.3571 20.8288 9.93665C20.8288 9.51618 20.4925 9.17493 20.0781 9.17493H13.4557C13.0413 9.17493 12.705 9.51618 12.705 9.93665C12.705 10.3571 13.0413 10.6984 13.4557 10.6984Z" fill="white"/>
<path fill-rule="evenodd" clip-rule="evenodd" d="M13.4557 7.375H17.4467C17.8611 7.375 18.1974 7.03375 18.1974 6.61328C18.1974 6.19281 17.8611 5.85156 17.4467 5.85156H13.4557C13.0413 5.85156 12.705 6.19281 12.705 6.61328C12.705 7.03375 13.0413 7.375 13.4557 7.375Z" fill="white"/>
<path fill-rule="evenodd" clip-rule="evenodd" d="M13.4557 16.6611H20.488C20.9024 16.6611 21.2387 16.3198 21.2387 15.8994C21.2387 15.4789 20.9024 15.1376 20.488 15.1376H13.4557C13.0413 15.1376 12.705 15.4789 12.705 15.8994C12.705 16.3198 13.0413 16.6611 13.4557 16.6611Z" fill="white"/>
<path fill-rule="evenodd" clip-rule="evenodd" d="M17.4467 24.4238H13.4557C13.0413 24.4238 12.705 24.765 12.705 25.1855C12.705 25.606 13.0413 25.9472 13.4557 25.9472H17.4467C17.8611 25.9472 18.1974 25.606 18.1974 25.1855C18.1974 24.765 17.8611 24.4238 17.4467 24.4238Z" fill="white"/>
<path fill-rule="evenodd" clip-rule="evenodd" d="M15.985 27.7464H13.4557C13.0413 27.7464 12.705 28.0876 12.705 28.5081C12.705 28.9286 13.0413 29.2698 13.4557 29.2698H15.985C16.3994 29.2698 16.7357 28.9286 16.7357 28.5081C16.7357 28.0876 16.3994 27.7464 15.985 27.7464Z" fill="white"/>
<path fill-rule="evenodd" clip-rule="evenodd" d="M18.8303 18.461H13.4557C13.0413 18.461 12.705 18.8022 12.705 19.2227C12.705 19.6432 13.0413 19.9844 13.4557 19.9844H18.8303C19.2447 19.9844 19.5811 19.6432 19.5811 19.2227C19.5811 18.8015 19.2455 18.461 18.8303 18.461Z" fill="white"/>
<path fill-rule="evenodd" clip-rule="evenodd" d="M36.2492 30.7986C35.8356 30.7986 35.4985 31.1406 35.4985 31.5603C35.4985 31.98 35.8356 32.322 36.2492 32.322C36.6629 32.322 37 31.98 37 31.5603C37 31.1406 36.6621 30.7986 36.2492 30.7986Z" fill="white"/>
</svg>
