<svg width="24" height="24" viewBox="0 0 24 24" fill="none" xmlns="http://www.w3.org/2000/svg">
<path d="M16.5 16.375H16.375V16.5V20.875H4.625V3.125H12H12.125V3V1.5V1.375H12H4.5C4.06902 1.375 3.6557 1.5462 3.35095 1.85095C3.0462 2.1557 2.875 2.56902 2.875 3V21C2.875 21.431 3.0462 21.8443 3.35095 22.149C3.6557 22.4538 4.06902 22.625 4.5 22.625H16.5C16.931 22.625 17.3443 22.4538 17.649 22.149C17.9538 21.8443 18.125 21.431 18.125 21V16.5V16.375H18H16.5Z" fill="black" stroke="black" stroke-width="0.25"/>
<path d="M22.5905 5.15998C22.5905 4.89383 22.5089 4.63597 22.3594 4.41998H22.3964L22.2257 4.24927L19.7507 1.77427L19.75 1.77357C19.507 1.53537 19.1803 1.40195 18.84 1.40195C18.4997 1.40195 18.173 1.53537 17.93 1.77356L17.9293 1.77427L7.42929 12.2743L7.4 12.3036V12.345V16.5V16.6H7.5H11.6475H11.6889L11.7182 16.5707L22.2182 6.0707L22.2189 6.06998C22.4571 5.82697 22.5905 5.50026 22.5905 5.15998ZM17.971 7.91994L10.9836 14.9H9.1V13.0164L16.08 6.02894L17.971 7.91994ZM19.17 6.72106L17.2789 4.82998L18.84 3.2689L20.7311 5.15998L19.17 6.72106Z" fill="black" stroke="black" stroke-width="0.2"/>
</svg>
