<svg width="31" height="33" viewBox="0 0 31 33" fill="none" xmlns="http://www.w3.org/2000/svg">
<path fill-rule="evenodd" clip-rule="evenodd" d="M30.25 27.5V17.875H27.5V27.5H5.5V5.5H15.125V2.75H5.5C3.98122 2.75 2.75 3.98122 2.75 5.5V27.5C2.75 29.0188 3.98122 30.25 5.5 30.25H27.5C29.0188 30.25 30.25 29.0188 30.25 27.5ZM26.3697 3.74476C25.7394 3.1095 24.8764 2.75005 23.9761 2.75005C23.0769 2.75005 22.2148 3.10869 21.5809 3.74641L10.0737 15.2535C9.04542 16.1595 8.37136 17.5077 8.25422 18.9576L8.24976 23.3783V24.7533H13.9348C15.4945 24.6463 16.8559 23.9656 17.8163 22.8577L29.2584 11.4206C29.8932 10.7858 30.2498 9.92479 30.2498 9.02703C30.2498 8.12928 29.8932 7.2683 29.2584 6.63349L26.3697 3.74476ZM13.8379 22.0067C14.5724 21.9547 15.2562 21.6129 15.8052 20.9848L24.1403 12.6497L20.3532 8.86234L11.957 17.2558C11.4 17.7485 11.0553 18.4378 10.9999 19.0684V22.0041L13.8379 22.0067ZM22.2981 6.91811L26.0849 10.7052L27.314 9.47607C27.4331 9.35699 27.5 9.19548 27.5 9.02707C27.5 8.85866 27.4331 8.69716 27.314 8.57807L24.4214 5.68551C24.3037 5.56684 24.1434 5.50009 23.9763 5.50009C23.8091 5.50009 23.6488 5.56684 23.5311 5.68551L22.2981 6.91811Z" fill="black"/>
</svg>
