<svg width="34" height="34" viewBox="0 0 34 34" fill="none" xmlns="http://www.w3.org/2000/svg">
<g clip-path="url(#clip0)">
<path d="M33.4535 11.4581C33.272 11.2102 33.0043 11.0477 32.7004 11.001L22.9173 9.49012V1.15107C22.9173 0.516339 22.401 0 21.7663 0H1.15103C0.516319 0 0 0.516339 0 1.15107V21.7803C0 22.415 0.516319 22.9314 1.15103 22.9314H8.83399L7.86515 29.2038C7.76912 29.8247 8.20652 30.4213 8.82676 30.5173L29.2006 33.664C29.8071 33.7574 30.4194 33.3134 30.5135 32.7024L31.0403 29.2906C31.1377 28.6604 30.1623 28.5092 30.0656 29.1399C29.9991 29.5695 29.6926 32.7405 29.3513 32.6892L8.97738 29.5425C8.88003 29.5182 8.83399 29.455 8.83991 29.355L9.83177 22.932H10.9354L10.133 28.1277C10.0916 28.3967 10.2757 28.6486 10.5454 28.6907L28.1128 31.4039C28.3607 31.4421 28.6363 31.2441 28.6758 30.9915L31.3935 13.3919C31.435 13.1229 31.2508 12.8703 30.9811 12.8289L22.9173 11.5831V10.4886L32.5498 11.9764C32.6472 12.0008 32.6932 12.0633 32.6873 12.1639L30.4497 26.6523C30.355 27.2653 31.3258 27.4436 31.4244 26.8029L33.662 12.3145C33.7094 12.0106 33.6351 11.7068 33.4535 11.4581ZM0.986597 21.7803V1.15107C0.986597 1.0603 1.06026 0.986636 1.15103 0.986636H21.7663C21.8571 0.986636 21.9307 1.0603 21.9307 1.15107V21.7803C21.9307 21.8711 21.8571 21.9447 21.7663 21.9447H1.15103C1.06026 21.9447 0.986597 21.8711 0.986597 21.7803ZM30.3431 13.728L27.776 30.3522L11.1841 27.7902L11.9345 22.9314H21.7663C22.401 22.9314 22.9173 22.415 22.9173 21.7803V12.5816L30.3431 13.728Z" fill="#FCC926"/>
<path d="M20.3458 2.06824H2.57063C2.29833 2.06824 2.07733 2.28924 2.07733 2.56156V5.02749C2.07733 5.66551 3.06393 5.66551 3.06393 5.02749V3.05487H19.8532V19.8764H3.06393V7.65062C3.06393 7.0126 2.07733 7.0126 2.07733 7.65062V20.369C2.07733 20.6413 2.29833 20.8623 2.57063 20.8623H20.3465C20.6188 20.8623 20.8398 20.6413 20.8398 20.369V2.56156C20.8391 2.28859 20.6181 2.06824 20.3458 2.06824Z" fill="#FCC926"/>
<path d="M11.4583 16.373C11.5228 16.373 11.5872 16.3605 11.6477 16.3355C11.703 16.3125 13.0184 15.76 14.3563 14.7154C16.1802 13.2921 17.1562 11.6325 17.1793 9.91776C17.2036 8.12339 15.8368 6.37573 13.9564 6.37573C12.9724 6.37573 12.0608 6.86576 11.4583 7.67546C10.8558 6.86576 9.94421 6.37573 8.96025 6.37573C7.18306 6.37573 5.73737 7.96159 5.73737 9.91118C5.73737 14.0412 11.0466 16.2454 11.2728 16.3375C11.3327 16.3611 11.3952 16.373 11.4583 16.373ZM6.72396 9.91118C6.72396 8.50555 7.727 7.36237 8.96025 7.36237C9.837 7.36237 10.6381 7.95238 10.9999 8.86469C11.161 9.27184 11.7556 9.27184 11.9167 8.86469C12.2785 7.95172 13.079 7.36237 13.9564 7.36237C15.2909 7.36237 16.2098 8.65026 16.1927 9.9046C16.1512 12.9579 12.3509 14.9207 11.4557 15.3403C10.5546 14.9272 6.72396 12.9908 6.72396 9.91118Z" fill="#FCC926"/>
</g>
<defs>
<clipPath id="clip0">
<rect width="33.6759" height="33.6759" fill="white"/>
</clipPath>
</defs>
</svg>
