<svg width="22" height="20" viewBox="0 0 22 20" fill="none" xmlns="http://www.w3.org/2000/svg">
<path d="M21 10L17.667 14M12 10H21H12ZM21 10L17.667 6L21 10Z" stroke="black" stroke-width="2" stroke-linecap="round" stroke-linejoin="round"/>
<path d="M13 4.99997V3.17397C13 2.89735 12.9426 2.62373 12.8314 2.37042C12.7203 2.11711 12.5578 1.88961 12.3542 1.70231C12.1507 1.515 11.9104 1.37196 11.6488 1.28222C11.3871 1.19249 11.1097 1.15801 10.834 1.18097L2.834 1.84697C2.33405 1.88861 1.86801 2.11662 1.5283 2.48578C1.18859 2.85494 1.00002 3.33829 1 3.83997V16.16C1.00002 16.6617 1.18859 17.145 1.5283 17.5142C1.86801 17.8833 2.33405 18.1113 2.834 18.153L10.834 18.82C11.1098 18.8429 11.3873 18.8084 11.649 18.7186C11.9107 18.6288 12.151 18.4857 12.3546 18.2983C12.5582 18.1109 12.7206 17.8833 12.8317 17.6298C12.9428 17.3764 13.0001 17.1027 13 16.826V15" stroke="black" stroke-width="2" stroke-linecap="round" stroke-linejoin="round"/>
</svg>
