<svg width="40" height="40" viewBox="0 0 40 40" fill="none" xmlns="http://www.w3.org/2000/svg">
<path d="M22.3438 16.0938C22.7752 16.0938 23.125 15.744 23.125 15.3125C23.125 14.881 22.7752 14.5312 22.3438 14.5312C21.9123 14.5312 21.5625 14.881 21.5625 15.3125C21.5625 15.744 21.9123 16.0938 22.3438 16.0938Z" fill="#A0D083"/>
<path d="M17.6562 16.0938C18.0877 16.0938 18.4375 15.744 18.4375 15.3125C18.4375 14.881 18.0877 14.5312 17.6562 14.5312C17.2248 14.5312 16.875 14.881 16.875 15.3125C16.875 15.744 17.2248 16.0938 17.6562 16.0938Z" fill="#A0D083"/>
<path d="M30.4961 29.3915C30.1914 29.0868 29.6961 29.0868 29.3914 29.3915C29.0867 29.6962 29.0867 30.1915 29.3914 30.4962L32.7063 33.811C33.0117 34.1157 33.5063 34.1157 33.8109 33.811C34.1156 33.5063 34.1156 33.011 33.8109 32.7063L30.4961 29.3915Z" fill="#A0D083"/>
<path d="M7.29371 6.18909C6.98903 5.8844 6.49371 5.8844 6.18903 6.18909C5.88434 6.49377 5.88434 6.98909 6.18903 7.29377L9.50387 10.6086C9.80934 10.9133 10.3039 10.9133 10.6086 10.6086C10.9132 10.3039 10.9132 9.80862 10.6086 9.50393L7.29371 6.18909Z" fill="#A0D083"/>
<path d="M10.6086 29.3915C10.3039 29.0868 9.80861 29.0868 9.50392 29.3915L6.18907 32.7063C5.88439 33.011 5.88361 33.5063 6.18907 33.811C6.49454 34.1157 6.98907 34.1157 7.29376 33.811L10.6086 30.4962C10.9141 30.1915 10.9141 29.6962 10.6086 29.3915Z" fill="#A0D083"/>
<path d="M32.7063 6.18901L29.3914 9.50386C29.0867 9.80855 29.0867 10.3039 29.3914 10.6085C29.6969 10.9132 30.1914 10.9132 30.4961 10.6085L33.8109 7.2937C34.1156 6.98901 34.1164 6.4937 33.8109 6.18901C33.5063 5.88433 33.0109 5.88355 32.7063 6.18901Z" fill="#A0D083"/>
<path d="M25.5562 35.4563C25.7211 35.8539 26.1773 36.0446 26.5773 35.8789C26.9758 35.7141 27.1648 35.2571 27 34.8578L26.1031 32.693C25.9383 32.2946 25.4812 32.1047 25.082 32.2703C24.6836 32.4352 24.4945 32.8922 24.6593 33.2914L25.5562 35.4563Z" fill="#A0D083"/>
<path d="M14.918 7.72976C15.3164 7.56491 15.5055 7.10788 15.3406 6.70866L14.4437 4.54382C14.2789 4.14538 13.8219 3.95554 13.4226 4.12116C13.0242 4.28601 12.8351 4.74304 13 5.14148L13.8969 7.30632C14.0617 7.70398 14.518 7.89538 14.918 7.72976Z" fill="#A0D083"/>
<path d="M7.7297 25.0821C7.56485 24.6836 7.10782 24.4946 6.7086 24.6594L4.54376 25.5563C4.14532 25.7211 3.95548 26.1782 4.1211 26.5774C4.28595 26.975 4.7422 27.1657 5.1422 27L7.30704 26.1032C7.70548 25.9383 7.89454 25.4805 7.7297 25.0821Z" fill="#A0D083"/>
<path d="M32.2703 14.918C32.4352 15.3156 32.8914 15.5062 33.2914 15.3406L35.4562 14.4437C35.8547 14.2789 36.0437 13.8219 35.8789 13.4226C35.7141 13.0242 35.257 12.8351 34.8578 13L32.693 13.8969C32.2945 14.0625 32.1055 14.5195 32.2703 14.918Z" fill="#A0D083"/>
<path d="M13.8969 32.6929L13 34.8577C12.8351 35.2562 13.0242 35.7132 13.4226 35.8788C13.8242 36.0452 14.2797 35.8515 14.4437 35.4562L15.3406 33.2913C15.5055 32.8929 15.3164 32.4359 14.918 32.2702C14.5195 32.1054 14.0625 32.2945 13.8969 32.6929Z" fill="#A0D083"/>
<path d="M26.1031 7.30709L27 5.14225C27.1648 4.74381 26.9758 4.28678 26.5773 4.12193C26.1789 3.95709 25.7218 4.14615 25.5562 4.54459L24.6593 6.70943C24.4945 7.10787 24.6836 7.5649 25.082 7.73053C25.4836 7.89615 25.939 7.7024 26.1031 7.30709Z" fill="#A0D083"/>
<path d="M4.12108 13.4226C3.95624 13.8211 4.1453 14.2781 4.54374 14.4437L6.70858 15.3406C7.11014 15.507 7.56561 15.3133 7.72967 14.918C7.89452 14.5195 7.70545 14.0625 7.30701 13.8969L5.14217 13C4.74374 12.8351 4.2867 13.0242 4.12108 13.4226Z" fill="#A0D083"/>
<path d="M35.4563 25.5563L33.2914 24.6594C32.893 24.4946 32.436 24.6836 32.2703 25.0821C32.1047 25.4805 32.2946 25.9375 32.693 26.1032L34.8578 27C35.2594 27.1664 35.7149 26.9727 35.8789 26.5774C36.0438 26.1789 35.8547 25.7219 35.4563 25.5563Z" fill="#A0D083"/>
<path d="M19.2188 34.0625V39.2188C19.2188 39.65 19.5687 40 20 40C20.4312 40 20.7812 39.65 20.7812 39.2188V34.0625C20.7812 33.6312 20.4312 33.2812 20 33.2812C19.5687 33.2812 19.2188 33.6312 19.2188 34.0625Z" fill="#A0D083"/>
<path d="M20.7812 5.9375V0.78125C20.7812 0.35 20.4312 0 20 0C19.5687 0 19.2188 0.35 19.2188 0.78125V5.9375C19.2188 6.36875 19.5687 6.71875 20 6.71875C20.4312 6.71875 20.7812 6.36875 20.7812 5.9375Z" fill="#A0D083"/>
<path d="M6.71875 20C6.71875 19.5687 6.36875 19.2188 5.9375 19.2188H0.78125C0.35 19.2188 0 19.5687 0 20C0 20.4312 0.35 20.7812 0.78125 20.7812H5.9375C6.36875 20.7812 6.71875 20.4312 6.71875 20Z" fill="#A0D083"/>
<path d="M39.2188 19.2188H34.0625C33.6312 19.2188 33.2812 19.5687 33.2812 20C33.2812 20.4312 33.6312 20.7812 34.0625 20.7812H39.2188C39.65 20.7812 40 20.4312 40 20C40 19.5687 39.65 19.2188 39.2188 19.2188Z" fill="#A0D083"/>
<path d="M15.3125 19.2188C14.8812 19.2188 14.5312 19.5687 14.5312 20C14.5312 23.0156 16.9844 25.4688 20 25.4688C23.0156 25.4688 25.4688 23.0156 25.4688 20C25.4688 19.5687 25.1187 19.2188 24.6875 19.2188C24.2563 19.2188 23.9062 19.5687 23.9062 20C23.9062 22.1539 22.1539 23.9062 20 23.9062C17.8461 23.9062 16.0938 22.1539 16.0938 20C16.0938 19.5687 15.7437 19.2188 15.3125 19.2188Z" fill="#A0D083"/>
<path d="M26.6406 27.4219C27.0721 27.4219 27.4219 27.0721 27.4219 26.6406C27.4219 26.2092 27.0721 25.8594 26.6406 25.8594C26.2092 25.8594 25.8594 26.2092 25.8594 26.6406C25.8594 27.0721 26.2092 27.4219 26.6406 27.4219Z" fill="#A0D083"/>
<path d="M9.84375 20C9.84375 25.6 14.4 30.1562 20 30.1562C21.4008 30.1562 22.7594 29.875 24.0367 29.3195C24.4328 29.1477 24.6141 28.6875 24.4422 28.2914C24.2703 27.8953 23.8102 27.7141 23.4141 27.8859C22.3344 28.3555 21.1859 28.593 20 28.593C15.2617 28.593 11.4062 24.7375 11.4062 19.9992C11.4062 15.2609 15.2617 11.4055 20 11.4055C24.7383 11.4055 28.5938 15.2609 28.5938 19.9992C28.5938 21.1844 28.3555 22.3336 27.8867 23.4125C27.7148 23.8086 27.8961 24.2687 28.2922 24.4406C28.6883 24.6125 29.1484 24.4313 29.3203 24.0359C29.875 22.7594 30.1562 21.4008 30.1562 20C30.1562 14.4 25.6 9.84375 20 9.84375C14.4 9.84375 9.84375 14.4 9.84375 20Z" fill="#A0D083"/>
</svg>
