<svg width="32" height="29" viewBox="0 0 32 29" fill="none" xmlns="http://www.w3.org/2000/svg">
<g clip-path="url(#clip0)">
<path d="M31.0554 12.2658L31.0554 12.2659C31.4383 14.3682 31.175 16.9995 30.876 18.1186C29.9617 21.5404 28.2507 24.3578 25.9271 26.2626C23.7037 28.0853 20.9737 29.0486 18.0329 29.0486C16.2049 29.0486 14.3458 28.6795 12.5065 27.9525L12.5248 27.906L12.5064 27.9525C12.312 27.8756 12.1194 27.7942 11.9271 27.7101C10.6522 28.5869 9.16588 29.0486 7.60654 29.0486C3.38498 29.0486 -0.05 25.6059 -0.05 21.3739C-0.05 17.3513 3.05373 14.0412 6.98728 13.7239C7.01887 13.4733 7.06867 13.2353 7.13383 13.0096C6.26188 12.9447 5.45057 12.5738 4.82623 11.948C3.90698 11.0265 3.54506 9.67184 3.88046 8.4118C3.88046 8.41179 3.88047 8.41177 3.88047 8.41176L3.92879 8.42462C3.98484 8.2133 4.14935 8.04839 4.36017 7.9922C4.66361 7.91097 4.9774 7.86944 5.29241 7.86944C6.25511 7.86944 7.15931 8.24506 7.8399 8.92727C8.33451 9.42306 8.66594 10.0464 8.81052 10.7126L31.0554 12.2658ZM31.0554 12.2658C31.0277 12.1153 30.9493 11.9792 30.8326 11.88L30.8326 11.88M31.0554 12.2658L30.8326 11.88M8.85549 10.6843C8.70692 10.0157 8.37244 9.39029 7.8753 8.89196C7.18534 8.20036 6.26841 7.81944 5.29241 7.81944C4.97301 7.81944 4.65487 7.86155 4.34724 7.9439M8.85549 10.6843L4.34724 7.9439M8.85549 10.6843C9.13896 10.5086 9.434 10.3803 9.72426 10.3021L9.72431 10.302C10.0764 10.2075 10.4377 10.4165 10.532 10.7692C10.6262 11.1219 10.418 11.4841 10.0659 11.5786C9.52526 11.7239 8.55036 12.353 8.31819 13.7322C9.06343 13.801 9.77739 13.9777 10.446 14.2461C11.0011 13.311 11.6892 12.6878 12.303 12.1333C13.0684 11.4415 13.6012 10.9565 13.676 10.1266C13.9311 7.28719 14.7351 5.29386 16.0793 4.21718L16.1106 4.2562L16.0793 4.21717C16.8047 3.63636 17.6832 3.33571 18.649 3.32925C18.9075 1.46486 20.1801 0.29326 21.3772 -0.0283044L21.3772 -0.0283065C21.7294 -0.122839 22.0906 0.0867551 22.1849 0.438862L22.1849 0.438884C22.2791 0.791604 22.0703 1.15373 21.7188 1.24825L21.7058 1.19997L21.7188 1.24826C21.1656 1.39687 20.1586 2.04999 19.9559 3.49449C20.9097 3.74477 21.6967 4.26661 22.2513 5.02745L22.2109 5.0569L22.2513 5.02745C23.2614 6.4133 23.5125 8.55326 23.0127 11.376C22.8631 12.223 23.2995 12.9076 23.8725 13.7998C24.091 14.1399 24.3255 14.5054 24.5416 14.9085C24.9789 14.1023 25.3419 13.2504 25.6173 12.3615L8.85549 10.6843ZM4.34724 7.9439C4.34726 7.9439 4.34728 7.9439 4.3473 7.94389L4.36016 7.99215L4.34724 7.9439ZM30.8326 11.88C29.8379 11.0365 29.6696 10.1085 29.5334 9.35212L30.8326 11.88ZM29.5157 9.25294L29.5157 9.25318L29.5334 9.35205L29.5157 9.25294ZM29.5157 9.25294C29.4643 8.97291 29.2402 8.75741 28.9592 8.71775C28.8671 8.70455 28.7696 8.69832 28.6701 8.69832C28.0797 8.69832 27.2488 8.94672 26.7188 9.50609L26.7188 9.50613M29.5157 9.25294L26.7188 9.50613M26.7188 9.50613C26.6232 9.60723 26.5619 9.73604 26.5435 9.87404L26.5435 9.87413M26.7188 9.50613L26.5435 9.87413M26.5435 9.87413C26.5006 10.1992 26.478 10.4972 26.4581 10.7595L26.4573 10.7704L26.4573 10.7705M26.5435 9.87413L26.4573 10.7705M26.4573 10.7705C26.4196 11.2719 26.3846 11.5398 26.3241 11.6947M26.4573 10.7705L26.3241 11.6947M12.789 22.4674C13.15 22.4533 13.5094 22.4234 13.8664 22.3783C13.9187 22.0472 13.9451 21.7105 13.9451 21.3739C13.9451 17.8706 11.1012 15.0207 7.60654 15.0207C4.11189 15.0207 1.26861 17.8706 1.26861 21.3739C1.26861 24.8772 4.11189 27.7277 7.60654 27.7277C8.63539 27.7277 9.62473 27.4841 10.5174 27.0187C9.33858 26.3764 8.19419 25.5906 7.09787 24.6675C6.88824 24.4911 6.80915 24.203 6.89945 23.944C7.22773 23.0014 7.78276 22.5089 8.32882 22.1204M12.789 22.4674L8.35781 22.1612M12.789 22.4674C12.8644 22.1097 12.9039 21.7443 12.9039 21.3739C12.9039 20.6797 12.7704 20.0014 12.5077 19.3596L12.5077 19.3596C12.3693 19.022 11.9849 18.8607 11.6474 18.9988L11.6473 18.9989C11.3104 19.1376 11.1496 19.5235 11.2874 19.861L11.2874 19.8611C11.4848 20.3436 11.5846 20.8527 11.5846 21.3739C11.5846 21.7398 11.5348 22.099 11.4374 22.4482M12.789 22.4674L11.3336 19.8421C11.5335 20.3307 11.6346 20.8462 11.6346 21.3739C11.6346 21.7581 11.5804 22.1349 11.4744 22.5008M8.32882 22.1204L8.35781 22.1612M8.32882 22.1204C8.32881 22.1204 8.32879 22.1205 8.32877 22.1205L8.35781 22.1612M8.32882 22.1204C8.48907 22.0061 8.69151 21.9698 8.88135 22.0207L8.88137 22.0207C9.72533 22.2471 10.5822 22.3904 11.4374 22.4482M8.35781 22.1612C8.50587 22.0555 8.69293 22.0219 8.86841 22.0689C9.72874 22.2998 10.6025 22.4446 11.4744 22.5008M11.4374 22.4482C11.4338 22.4611 11.4301 22.474 11.4264 22.4868L11.4744 22.5008M11.4374 22.4482C11.4508 22.4491 11.4642 22.45 11.4776 22.4509L11.4744 22.5008M26.3241 11.6947C26.2948 11.7698 26.2605 11.8152 26.219 11.8477M26.3241 11.6947L26.219 11.8477M26.219 11.8477C26.1763 11.881 26.1224 11.9036 26.0478 11.9273M26.219 11.8477L26.0478 11.9273M26.0478 11.9273C25.8421 11.9927 25.6813 12.1546 25.6173 12.3614L26.0478 11.9273ZM18.0329 27.7271C23.609 27.7271 27.9349 24.0134 29.6022 17.7771C29.8689 16.7798 30.0728 14.5139 29.7957 12.7236C28.8192 11.8165 28.4948 10.8362 28.3285 10.0652C28.1434 10.1126 27.963 10.1927 27.8218 10.2913C27.8017 10.4826 27.7879 10.6644 27.7744 10.8431L27.7725 10.8683L27.7725 10.8684L27.7716 10.8814C27.7094 11.7114 27.6427 12.6029 26.7815 13.0491C26.3565 14.3255 25.7557 15.5531 25.0062 16.6927M18.0329 27.7271L24.9321 16.7138M18.0329 27.7271C14.7876 27.7271 11.3587 26.3979 8.33096 23.9708M18.0329 27.7271L8.85364 23.3767M25.0062 16.6927C25.006 16.693 25.0057 16.6933 25.0055 16.6937L24.9638 16.6662L25.0068 16.6916C25.0066 16.692 25.0064 16.6923 25.0062 16.6927ZM25.0062 16.6927C24.9961 16.7096 24.9852 16.7263 24.9729 16.7427M24.9729 16.7427C24.9732 16.7423 24.9735 16.7419 24.9738 16.7414L24.9321 16.7138M24.9729 16.7427C24.019 18.1819 22.8281 19.4802 21.454 20.5576C18.7506 22.6774 15.5867 23.7985 12.3049 23.7985C11.153 23.7985 9.99399 23.6565 8.85364 23.3767M24.9729 16.7427C24.9726 16.7432 24.9722 16.7436 24.9719 16.744L24.9321 16.7138M24.9321 16.7138L8.85364 23.3767M8.85364 23.3767C8.86 23.3715 8.86638 23.3664 8.87277 23.3613L8.8416 23.3222L8.8296 23.3708C8.83761 23.3727 8.84563 23.3747 8.85364 23.3767ZM8.85364 23.3767C8.65913 23.5341 8.47964 23.7159 8.33096 23.9708M8.33096 23.9708C8.31989 23.9619 8.30883 23.953 8.29777 23.9441L8.26642 23.9831L8.3101 24.0074C8.31699 23.995 8.32394 23.9828 8.33096 23.9708ZM16.9023 5.24984L16.871 5.21081L16.9023 5.24984C17.5183 4.75627 18.281 4.56444 19.173 4.68442L19.173 4.68443C20.0542 4.8026 20.7296 5.1808 21.1865 5.80766L21.2269 5.77821L21.1865 5.80767C21.9684 6.87992 22.152 8.67045 21.7139 11.1454C21.4729 12.5054 22.1325 13.5331 22.7587 14.5087L22.7629 14.5152L22.7629 14.5153C23.1116 15.058 23.4667 15.6127 23.711 16.2556C21.6779 19.1876 18.6068 21.33 15.2255 22.1319C15.2501 21.8807 15.2625 21.6276 15.2625 21.3751C15.2625 18.6198 13.8064 16.1989 11.6254 14.845C12.0738 14.1216 12.6345 13.6133 13.1859 13.1145C13.186 13.1145 13.186 13.1145 13.186 13.1145L13.1909 13.11C14.0074 12.3718 14.8675 11.5943 14.9887 10.2449C15.212 7.7586 15.8606 6.08422 16.9023 5.24984ZM5.75861 11.0138L5.75858 11.0137C5.26727 10.5212 5.02474 9.83421 5.08476 9.1507C5.15366 9.1445 5.22308 9.14157 5.29302 9.14157C5.91643 9.14157 6.50204 9.38484 6.94295 9.82681C7.43427 10.3193 7.67679 11.0063 7.61678 11.6898C7.54788 11.696 7.47855 11.699 7.40913 11.699C6.78508 11.699 6.19888 11.4557 5.75861 11.0138Z" fill="black" stroke="black" stroke-width="0.1"/>
</g>
<defs>
<clipPath id="clip0">
<rect width="31.1963" height="29" fill="white"/>
</clipPath>
</defs>
</svg>
