<svg width="26" height="16" viewBox="0 0 26 16" fill="none" xmlns="http://www.w3.org/2000/svg">
<path d="M20.8 8.06404C20.8 6.97203 19.916 6.40003 18.72 6.40003H15.236C15.496 5.46403 15.6 4.58003 15.6 3.80003C15.6 0.784034 14.768 0.160034 14.04 0.160034C13.572 0.160034 13.208 0.212034 12.74 0.472034C12.584 0.576034 12.532 0.680034 12.48 0.836034L11.96 3.64403C11.388 5.10003 9.98403 6.40003 8.84003 7.28404V14.72C9.25603 14.72 9.67203 14.928 10.192 15.188C10.764 15.448 11.336 15.76 11.96 15.76H16.9C17.94 15.76 18.72 14.928 18.72 14.2C18.72 14.044 18.72 13.94 18.668 13.836C19.292 13.576 19.76 13.056 19.76 12.38C19.76 12.068 19.708 11.808 19.604 11.548C20.02 11.288 20.384 10.82 20.384 10.3C20.384 9.98804 20.228 9.67603 20.072 9.41603C20.488 9.10403 20.8 8.58403 20.8 8.06404ZM19.708 8.06404C19.708 8.74004 19.032 8.79204 18.928 9.10404C18.824 9.46804 19.344 9.57203 19.344 10.196C19.344 10.82 18.564 10.82 18.46 11.184C18.356 11.6 18.72 11.704 18.72 12.328V12.432C18.616 12.952 17.836 13.004 17.68 13.212C17.524 13.472 17.68 13.576 17.68 14.148C17.68 14.46 17.316 14.668 16.9 14.668H11.96C11.544 14.668 11.128 14.46 10.608 14.2C10.192 13.992 9.77603 13.784 9.36003 13.68V8.22003C10.66 7.23203 12.324 5.77603 12.948 3.95603V3.85203L13.416 1.25203C13.624 1.20003 13.78 1.20003 14.04 1.20003C14.144 1.20003 14.56 1.82403 14.56 3.80003C14.56 4.58003 14.404 5.41203 14.144 6.40003H14.04C13.728 6.40003 13.52 6.60803 13.52 6.92003C13.52 7.23203 13.728 7.44003 14.04 7.44003H18.72C19.24 7.44003 19.708 7.70004 19.708 8.06404Z" fill="#9E9E9E"/>
<path d="M8.31997 15.76H5.19997C4.62797 15.76 4.15997 15.292 4.15997 14.72V7.44002C4.15997 6.86802 4.62797 6.40002 5.19997 6.40002H8.31997C8.89197 6.40002 9.35997 6.86802 9.35997 7.44002V14.72C9.35997 15.292 8.89197 15.76 8.31997 15.76ZM5.19997 7.44002V14.72H8.31997V7.44002H5.19997Z" fill="#9E9E9E"/>
</svg>
