<svg width="20" height="28" viewBox="0 0 20 28" fill="none" xmlns="http://www.w3.org/2000/svg">
<g clip-path="url(#clip0)">
<path d="M-0.05 0.562963H-0.0501804L-0.0498202 0.567199L2.07653 25.5746L2.07656 25.575C2.20232 26.9353 3.4577 28.05 4.86903 28.05H15.131C16.5724 28.05 17.8289 26.9358 17.9235 25.5742C17.9235 25.574 17.9235 25.5739 17.9235 25.5738L20.0498 0.567199L20.05 0.567214V0.562963C20.05 0.415647 20.0208 0.252073 19.8892 0.147804C19.8427 0.00841921 19.6939 -0.05 19.5378 -0.05H0.554699C0.389136 -0.05 0.218761 0.0135689 0.114659 0.147025C0.0188749 0.269818 -0.05 0.399054 -0.05 0.562963ZM15.1926 26.9426H4.89985C4.11186 26.9426 3.40952 26.3392 3.29298 25.5907H16.7994C16.6815 26.3387 15.9511 26.9426 15.1926 26.9426ZM1.19467 1.08704H18.867L16.9032 24.4537H3.18921L1.19467 1.08704Z" fill="black" stroke="black" stroke-width="0.1"/>
<path d="M10.1857 8.98975L10.1854 8.98966C9.47042 8.75056 8.63284 8.63152 7.73499 8.63152C5.61954 8.63152 3.67231 9.30189 3.40307 9.39458C3.38876 9.39951 3.37919 9.4028 3.37459 9.40428L3.37454 9.40412L3.3708 9.40566C3.13951 9.50096 2.96743 9.72655 3.00112 9.99046L4.0488 22.7893L4.04877 22.7893L4.04896 22.791C4.08252 23.0814 4.3183 23.3093 4.62251 23.3093H15.5316C15.83 23.3093 16.1044 23.086 16.1055 22.787L17.0299 9.54426L17.03 9.54427V9.54078C17.03 9.35492 16.9659 9.15669 16.7921 9.05471C16.6269 8.92884 16.4255 8.89498 16.2543 8.96037C14.2307 9.63818 12.0852 9.63781 10.1857 8.98975ZM15.816 10.2575L14.9919 22.1426H5.16185L4.24399 10.3172C4.90612 10.108 6.32199 9.73893 7.76581 9.73893C8.53082 9.73893 9.23437 9.85657 9.81507 10.0328C11.6841 10.6807 13.7941 10.7455 15.816 10.2575Z" fill="black" stroke="black" stroke-width="0.1"/>
</g>
<defs>
<clipPath id="clip0">
<rect width="20" height="28" fill="white"/>
</clipPath>
</defs>
</svg>
