<svg width="31" height="21" viewBox="0 0 31 21" fill="none" xmlns="http://www.w3.org/2000/svg">
<g clip-path="url(#clip0)">
<path d="M30.3615 17.7139C30.0041 18.9988 28.9573 20.0116 27.6293 20.3578C25.2036 21 15.4998 21 15.4998 21C15.4998 21 5.79641 21 3.37069 20.3822C2.06838 20.0365 0.995887 18.9988 0.638551 17.7139C0 15.367 0 10.5 0 10.5C0 10.5 0 5.60816 0.638551 3.28609C0.996372 2.00121 2.04268 0.988405 3.37118 0.642206C5.82259 0 15.5007 0 15.5007 0C15.5007 0 25.2041 0 27.6298 0.617813C28.9578 0.963543 30.0046 1.97634 30.3624 3.26122C31.0005 5.60816 31.0005 10.4751 31.0005 10.4751C31.0005 10.4751 31.0257 15.367 30.3615 17.7139ZM12.4103 6.00362V14.9964L20.4792 10.5L12.4103 6.00362Z" fill="white"/>
</g>
<defs>
<clipPath id="clip0">
<rect width="31" height="21" fill="white" transform="matrix(1 0 0 -1 0 21)"/>
</clipPath>
</defs>
</svg>
